<?xml version="1.0" encoding="UTF-8"?>
<svg id="Layer_1" xmlns="http://www.w3.org/2000/svg" viewBox="0 0 404 391.08">
  <defs>
    <style>
      .cls-1 {
        fill: #e0e0e0;
      }

      .cls-2 {
        isolation: isolate;
      }

      .cls-2, .cls-3 {
        opacity: .1;
      }

      .cls-4 {
        fill: #ebebeb;
      }

      .cls-5 {
        fill: #263238;
      }

      .cls-6 {
        fill: #fff;
      }

      .cls-7 {
        fill: #f0f0f0;
      }

      .cls-8 {
        fill: #fafafa;
      }

      .cls-9 {
        opacity: .2;
      }

      .cls-10 {
        opacity: .3;
      }

      .cls-11 {
        fill: #92e3a9;
      }
    </style>
  </defs>
  <g id="freepik--background-complete--inject-2">
    <path class="cls-4" d="M157.63,9.5l-95.19,123.67,256-63.64L175.85,4.93c-6.4-2.9-13.95-1.01-18.22,4.57Z"/>
    <path class="cls-1" d="M61.09,134.05L157.21,9.19c4.42-5.78,12.25-7.73,18.86-4.69l144,65.23L61.09,134.05ZM169.59,4.05c-4.53,0-8.8,2.13-11.54,5.74h0l-94.27,122.51,253.06-62.91L175.64,5.39c-1.9-.86-3.96-1.3-6.05-1.29v-.05Z"/>
    <path class="cls-7" d="M62.43,133.18l256.9-63.86h0l34.61,139.23c1.43,5.74-2.07,11.55-7.81,12.98l-236.11,58.69c-5.74,1.43-11.55-2.07-12.98-7.81l-34.61-139.23h0Z"/>
    <path class="cls-6" d="M303.52,76.94l-89,90.93-134.52-30.28-15.39-71.35c-1.77-7.66,2.92-15.32,10.55-17.22L269.76.65c7.71-1.92,15.51,2.77,17.43,10.47,0,0,0,.02,0,.03l16.32,65.79Z"/>
    <path class="cls-1" d="M202.3,160.72l-105.69,110.44h0c1.57,6.31,7.96,10.16,14.27,8.59,0,0,0,0,0,0l234.3-58.25c6.31-1.57,10.16-7.96,8.59-14.27l-.22-.88-138.2-48.75c-4.59-1.62-9.7-.4-13.06,3.12Z"/>
    <rect class="cls-1" x="92.21" y="68.91" width="78.45" height="8.01" transform="translate(-13.71 33.89) rotate(-13.97)"/>
    <rect class="cls-1" x="95.82" y="77.06" width="174.06" height="9.05" transform="translate(-14.29 46.56) rotate(-13.97)"/>
    <rect class="cls-1" x="101.17" y="98.51" width="174.06" height="9.05" transform="translate(-19.31 48.48) rotate(-13.97)"/>
    <polygon class="cls-1" points="275.11 106.07 269.82 111.36 128.02 148.43 109.49 144.1 108.79 142.09 277.16 100.21 277.89 103.12 275.11 106.07"/>
    <polygon class="cls-1" points="238.84 143.02 174.96 158.9 155.43 154.44 250.9 130.69 238.84 143.02"/>
    <path class="cls-8" d="M198.44,164.74s-.07.11-.24.3l-.76.83-2.94,3.15-10.89,11.53c-9.22,9.71-22,23.13-36.15,37.84s-27.15,27.91-36.63,37.37c-4.74,4.73-8.6,8.55-11.28,11.16l-3.09,3-.82.77c-.09.1-.18.18-.29.25.07-.1.16-.2.25-.29l.78-.81,3-3.07,11.17-11.27c9.41-9.53,22.34-22.76,36.52-37.48s27-28,36.25-37.73l11-11.41,3-3.08.8-.79c.22-.19.32-.27.32-.27Z"/>
    <path class="cls-8" d="M353.56,206.33c-.05.14-29.52-10.09-65.82-22.85s-65.69-23.22-65.64-23.36,29.52,10.08,65.82,22.84,65.69,23.22,65.64,23.37Z"/>
    <path class="cls-8" d="M307.75,72.56c-.06.09-.12.17-.19.25l-.56.69-2.37,2.63-8.83,9.59c-7.48,8.07-17.9,19.13-29.58,31.2s-22.46,22.84-30.28,30.58l-9.31,9.12-2.56,2.45-.67.63c-.16.14-.24.21-.25.2.06-.09.13-.17.21-.24l.63-.67,2.49-2.52,9.18-9.24c7.76-7.81,18.43-18.63,30.11-30.69s22.14-23.04,29.7-31.04l8.95-9.47,2.45-2.56.65-.66c.07-.09.14-.18.23-.25Z"/>
    <path class="cls-8" d="M198.44,164.74c-.12,0-.24-.03-.35-.06l-1-.24-4-1c-3.42-.86-8.39-2.07-14.54-3.51-12.29-2.91-29.34-6.66-48.18-10.74s-35.88-7.89-48.15-10.9c-6.14-1.5-11.1-2.76-14.51-3.68l-3.93-1.07-1-.29c-.12-.02-.23-.07-.34-.12l.35.07,1,.23,4,1c3.43.86,8.4,2.06,14.55,3.51,12.29,2.91,29.33,6.66,48.18,10.74s35.88,7.89,48.15,10.9c6.14,1.5,11.1,2.75,14.51,3.68l3.92,1.07,1,.29.34.12Z"/>
    <path class="cls-1" d="M303.52,76.94s-.1-.33-.27-1l-.73-2.83c-.64-2.51-1.57-6.18-2.77-10.91l-10.07-40.12c-.53-2.12-1.08-4.29-1.63-6.51-.27-1.1-.55-2.23-.84-3.36-.14-.57-.28-1.14-.46-1.69-.16-.56-.36-1.11-.6-1.64-2.02-4.56-6.29-7.72-11.25-8.31-1.26-.17-2.55-.17-3.81,0-1.26.22-2.54.57-3.83.88l-7.85,2-16.41,4.05-72.91,18.2-73,18.12-16.39,4.06-4,1c-1.3.27-2.57.65-3.8,1.15-2.37,1.03-4.42,2.68-5.92,4.79-.73,1.02-1.32,2.14-1.76,3.31-.41,1.16-.68,2.37-.81,3.59-.29,2.45.39,4.81.87,7.14,1,4.67,1.96,9.14,2.87,13.41,3.65,17.09,6.6,30.91,8.64,40.48,1,4.78,1.79,8.48,2.33,11,.25,1.25.45,2.21.59,2.87s.18,1,.18,1c0,0-.09-.33-.24-1s-.36-1.61-.64-2.85c-.56-2.53-1.37-6.23-2.42-11-2.09-9.56-5.1-23.38-8.82-40.44-.92-4.27-1.9-8.74-2.91-13.41-.48-2.3-1.18-4.74-.88-7.27.11-1.27.39-2.51.82-3.71.46-1.21,1.07-2.36,1.81-3.42.76-1.08,1.66-2.04,2.69-2.87,1.03-.86,2.18-1.56,3.41-2.08,1.25-.51,2.55-.91,3.87-1.18l4-1,16.42-4.06,73-18.16L243,7.05l16.39-4.06,7.85-1.94c1.29-.32,2.55-.66,3.87-.89,3.89-.58,7.86.43,11,2.8,1.98,1.5,3.54,3.48,4.54,5.75.25.55.46,1.11.62,1.69.18.57.32,1.14.46,1.71.28,1.13.55,2.26.83,3.37.55,2.22,1.08,4.39,1.61,6.51l9.9,40.19c1.15,4.74,2.05,8.42,2.66,10.93.3,1.25.53,2.2.68,2.85s.11.98.11.98Z"/>
  </g>
  <g id="freepik--mail-sent--inject-2">
    <polygon class="cls-11" points="191.71 24.16 181.82 31.69 182.3 46.07 173.25 38.88 168.25 43.16 149.25 19.7 191.71 24.16"/>
    <path class="cls-11" d="M178.1,34.75c0,.44,4.2,11.32,4.2,11.32l-9.05-7.19,4.85-4.13Z"/>
    <g class="cls-10">
      <path d="M178.1,34.75c0,.44,4.2,11.32,4.2,11.32l-9.05-7.19,4.85-4.13Z"/>
    </g>
    <polygon class="cls-11" points="149.25 19.7 178.1 34.75 182.3 46.07 181.82 31.69 149.25 19.7"/>
    <polygon class="cls-2" points="149.25 19.7 178.1 34.75 182.3 46.07 181.82 31.69 149.25 19.7"/>
    <path class="cls-5" d="M229.25,213.72c-1.78-.06-3.52-.48-5.13-1.25,1.78.06,3.52.48,5.13,1.25Z"/>
    <path class="cls-5" d="M237.43,215.72c0,.15-.75.1-1.59-.1s-1.5-.5-1.47-.65.75-.1,1.6.11,1.5.49,1.46.64Z"/>
    <path class="cls-5" d="M203.67,44.19c-.89.01-1.77-.13-2.61-.41-.88-.11-1.73-.38-2.52-.79.89-.12,1.8-.03,2.65.26.89.11,1.74.43,2.48.94Z"/>
    <path class="cls-5" d="M213.35,48.34c-1.68-.55-3.26-1.35-4.71-2.36.89.08,1.75.38,2.51.86,1.31.66,2.28,1.37,2.2,1.5Z"/>
    <path class="cls-5" d="M221.74,54.7c-.11.11-1-.64-2.12-1.58s-2-1.74-1.87-1.87c.85.3,1.62.8,2.25,1.45,1.09.96,1.85,1.9,1.74,2Z"/>
    <path class="cls-5" d="M228.14,63.05c-.14.07-.8-.9-1.6-2.1-.56-.69-1-1.47-1.3-2.3.11-.09.95.77,1.76,2,.56.7.96,1.52,1.14,2.4Z"/>
    <path class="cls-5" d="M231.77,72.92c-.43-.78-.73-1.62-.88-2.49-.33-.82-.52-1.7-.55-2.59.54.72.91,1.55,1.07,2.44.34.84.46,1.74.36,2.64Z"/>
    <path class="cls-5" d="M232.31,83.42c-.18-.87-.22-1.76-.11-2.64-.08-.88,0-1.77.24-2.63.31.84.41,1.75.31,2.64.06.9-.09,1.8-.44,2.63Z"/>
    <path class="cls-5" d="M229.58,93.56c.11-.88.36-1.73.74-2.53.2-.86.54-1.68,1-2.43.05.9-.13,1.8-.53,2.61-.2.87-.62,1.68-1.21,2.35Z"/>
    <path class="cls-5" d="M223.47,102.1c-.1-.12.68-1,1.63-2.08s1.71-2,1.84-1.89c-.28.86-.78,1.63-1.43,2.25-.97,1.12-1.94,1.83-2.04,1.72Z"/>
    <path class="cls-5" d="M214.65,107.78c.68-.57,1.44-1.03,2.26-1.36.74-.49,1.55-.85,2.41-1.08-.58.69-1.32,1.23-2.16,1.57-.75.49-1.61.79-2.51.87Z"/>
    <path class="cls-5" d="M204.39,109.99c.84-.31,1.72-.47,2.61-.49.87-.2,1.76-.26,2.64-.17-.79.45-1.67.69-2.57.71-.88.21-1.81.19-2.68-.05Z"/>
    <path class="cls-5" d="M194.09,108.04c1.71.36,3.38.87,5,1.53-.9.11-1.81-.01-2.64-.36-.88-.18-1.69-.58-2.36-1.17Z"/>
    <path class="cls-5" d="M186.79,100.8c.15-.05.61,1,1.43,2.18s1.61,2,1.5,2.15-1.09-.6-1.95-1.83c-.6-.7-.95-1.58-.98-2.5Z"/>
    <path class="cls-5" d="M191.23,92.61c0,.16-1.09.51-2.23,1.32s-1.75,1.82-1.89,1.74.3-1.28,1.57-2.18c.71-.61,1.62-.92,2.55-.88Z"/>
    <path class="cls-5" d="M200.27,96.36c-.14.08-.78-.9-1.82-1.86s-2.1-1.44-2-1.59c.93.07,1.79.5,2.42,1.19.72.56,1.21,1.37,1.4,2.26Z"/>
    <path class="cls-5" d="M200.61,106.57c.07-.87.24-1.73.49-2.57.07-.87.24-1.74.49-2.58.27.87.27,1.81,0,2.68-.07.9-.41,1.77-.98,2.47Z"/>
    <path class="cls-5" d="M193.76,114.42c-.09-.13.82-.88,1.91-1.81s2-1.73,2.07-1.63-.58,1.08-1.71,2-2.19,1.57-2.27,1.44Z"/>
    <path class="cls-5" d="M184.41,119.28c.66-.6,1.44-1.06,2.28-1.35.77-.45,1.62-.74,2.51-.85-1.43,1.06-3.06,1.81-4.79,2.2h0Z"/>
    <path class="cls-5" d="M175,124.06c-.08-.13.87-.84,2.13-1.6.74-.51,1.58-.85,2.46-1,.08.15-.94.76-2.19,1.48-.71.54-1.53.92-2.4,1.12Z"/>
    <path class="cls-5" d="M167,130.94c-.11-.1.58-1.08,1.63-2.11.58-.69,1.31-1.23,2.13-1.59.1.12-.71,1-1.74,2s-1.86,1.8-2.02,1.7Z"/>
    <path class="cls-5" d="M161,139.56c.17-.88.54-1.71,1.08-2.43.77-1.25,1.56-2.15,1.68-2.06-.26.85-.67,1.65-1.21,2.35-.76,1.23-1.41,2.21-1.55,2.14Z"/>
    <path class="cls-5" d="M157.16,149.36c-.05-.9.11-1.79.48-2.61.19-.88.58-1.7,1.15-2.4-.29,1.74-.84,3.42-1.63,5h0Z"/>
    <path class="cls-5" d="M155.78,159.8c-.36-1.75-.24-3.57.36-5.26.15.87.15,1.77,0,2.64.03.89-.09,1.77-.36,2.62Z"/>
    <path class="cls-5" d="M157.16,170.23c-.45-.77-.73-1.63-.83-2.52-.29-.85-.37-1.76-.22-2.65.39.8.64,1.66.76,2.54.28.85.38,1.74.29,2.63Z"/>
    <path class="cls-5" d="M161.23,179.93c-.13.08-.84-.88-1.49-2.2-.48-.76-.77-1.62-.85-2.52.58.68,1.03,1.45,1.34,2.28.47.75.81,1.57,1,2.44Z"/>
    <path class="cls-5" d="M167.55,188.36c-.1.1-1-.66-2-1.78-.64-.63-1.14-1.39-1.44-2.24.13-.1.92.78,1.86,1.88s1.69,2.03,1.58,2.14Z"/>
    <path class="cls-5" d="M175.67,195.06c-.87-.23-1.67-.67-2.34-1.27-1.18-.86-2-1.72-1.92-1.84.83.33,1.59.81,2.25,1.4,1.16.85,2.09,1.58,2.01,1.71Z"/>
    <path class="cls-5" d="M185.17,199.6c-.9,0-1.78-.23-2.58-.65-.87-.24-1.66-.7-2.31-1.32.88.13,1.72.4,2.51.81.85.26,1.65.65,2.38,1.16Z"/>
    <path class="cls-5" d="M190.46,200.95c0,.14-.09.26-.14.25s-.07-.14,0-.29.09-.26.14-.25.03.14,0,.29Z"/>
    <rect class="cls-11" x="172.65" y="170.61" width="7.16" height="11.51" transform="translate(-46.32 288.77) rotate(-71.82)"/>
    <g class="cls-10">
      <rect x="172.65" y="170.61" width="7.16" height="11.51" transform="translate(-46.32 288.77) rotate(-71.82)"/>
    </g>
    <path class="cls-11" d="M182.79,174.78c-2.04,1.03-4.16,1.89-6.34,2.6l-.19.07-.12-.16-.19-.24c-1.52-1.84-2.88-3.81-4.09-5.87,1.65,1.73,3.16,3.58,4.53,5.54l.18.24-.31-.09c2.12-.87,4.3-1.57,6.53-2.09Z"/>
    <g class="cls-3">
      <path d="M182.79,174.78c-2.04,1.03-4.16,1.89-6.34,2.6l-.19.07-.12-.16-.19-.24c-1.52-1.84-2.88-3.81-4.09-5.87,1.65,1.73,3.16,3.58,4.53,5.54l.18.24-.31-.09c2.12-.87,4.3-1.57,6.53-2.09Z"/>
    </g>
    <path class="cls-11" d="M175,175.35c-.75.68-1.62,1.21-2.57,1.57-.87.52-1.83.88-2.82,1.07.76-.67,1.63-1.2,2.58-1.57.87-.51,1.82-.88,2.81-1.07Z"/>
    <g class="cls-3">
      <path d="M175,175.35c-.75.68-1.62,1.21-2.57,1.57-.87.52-1.83.88-2.82,1.07.76-.67,1.63-1.2,2.58-1.57.87-.51,1.82-.88,2.81-1.07Z"/>
    </g>
    <path class="cls-11" d="M180.75,181.64c-.61-.75-1.09-1.61-1.4-2.53-.66-1.49-1.1-2.77-.9-2.75.61.75,1.09,1.61,1.41,2.53.47.85.77,1.79.89,2.75Z"/>
    <g class="cls-3">
      <path d="M180.75,181.64c-.61-.75-1.09-1.61-1.4-2.53-.66-1.49-1.1-2.77-.9-2.75.61.75,1.09,1.61,1.41,2.53.47.85.77,1.79.89,2.75Z"/>
    </g>
    <rect class="cls-11" x="201.26" y="190.74" width="18.42" height="29.6" transform="translate(-50.48 341.38) rotate(-71.82)"/>
    <path class="cls-11" d="M227.38,201.43c-.4.23-.82.42-1.26.57l-3.5,1.37c-3,1.13-7.09,2.67-11.7,4.36l-.19.07-.12-.16-.47-.62c-3.06-4-5.82-7.73-7.79-10.42l-2.35-3.19c-.3-.38-.56-.79-.79-1.22.37.33.7.7,1,1.09l2.45,3.09c2.05,2.62,4.85,6.27,7.92,10.32l.47.61-.31-.09c4.6-1.68,8.75-3.16,11.75-4.2l3.56-1.21c.43-.16.88-.29,1.33-.37Z"/>
    <g class="cls-9">
      <path d="M227.38,201.43c-.4.23-.82.42-1.26.57l-3.5,1.37c-3,1.13-7.09,2.67-11.7,4.36l-.19.07-.12-.16-.47-.62c-3.06-4-5.82-7.73-7.79-10.42l-2.35-3.19c-.3-.38-.56-.79-.79-1.22.37.33.7.7,1,1.09l2.45,3.09c2.05,2.62,4.85,6.27,7.92,10.32l.47.61-.31-.09c4.6-1.68,8.75-3.16,11.75-4.2l3.56-1.21c.43-.16.88-.29,1.33-.37Z"/>
    </g>
    <path class="cls-11" d="M207.38,202.92c-2.19,1.37-4.47,2.58-6.82,3.63-2.28,1.21-4.63,2.26-7.05,3.14,2.18-1.38,4.45-2.59,6.81-3.64,2.27-1.21,4.63-2.26,7.06-3.13Z"/>
    <g class="cls-9">
      <path d="M207.38,202.92c-2.19,1.37-4.47,2.58-6.82,3.63-2.28,1.21-4.63,2.26-7.05,3.14,2.18-1.38,4.45-2.59,6.81-3.64,2.27-1.21,4.63-2.26,7.06-3.13Z"/>
    </g>
    <path class="cls-11" d="M222.14,219.09c-1.23-2.15-2.3-4.38-3.21-6.68-1.07-2.23-1.97-4.54-2.7-6.91,1.23,2.15,2.3,4.38,3.21,6.69,1.07,2.23,1.97,4.54,2.7,6.9Z"/>
    <g class="cls-9">
      <path d="M222.14,219.09c-1.23-2.15-2.3-4.38-3.21-6.68-1.07-2.23-1.97-4.54-2.7-6.91,1.23,2.15,2.3,4.38,3.21,6.69,1.07,2.23,1.97,4.54,2.7,6.9Z"/>
    </g>
    <path class="cls-5" d="M200.8,196.5c-1.95,1.43-4.7,1.01-6.14-.94-1.43-1.95-1.01-4.7.94-6.14,1.95-1.43,4.7-1.01,6.13.94,1.44,1.95,1.02,4.7-.94,6.14,0,0,0,0,0,0Z"/>
    <path class="cls-6" d="M201,192.15c-.93.69-1.92,1.3-2.95,1.82l-.7.39-.13.07-.07-.12c-.47-.75-.87-1.54-1.2-2.37.56.69,1.04,1.44,1.45,2.23l-.19-.06.7-.4c.98-.61,2.02-1.13,3.09-1.56Z"/>
    <rect class="cls-11" x="195.64" y="172.24" width="9.65" height="15.51" transform="translate(-33.09 314.3) rotate(-71.82)"/>
    <g class="cls-9">
      <rect x="195.64" y="172.24" width="9.65" height="15.51" transform="translate(-33.09 314.3) rotate(-71.82)"/>
    </g>
    <path class="cls-11" d="M209.31,177.84c-.21.12-.42.22-.65.3l-1.84.72c-1.55.59-3.71,1.4-6.13,2.28h-.1l-.06-.09-.24-.32c-1.61-2.12-3-4.05-4.09-5.46l-1.2-1.63c-.15-.2-.29-.42-.41-.64.19.17.35.36.5.57l1.29,1.62c1.07,1.37,2.54,3.28,4.14,5.4l.25.33h-.16c2.41-.88,4.58-1.66,6.16-2.2l1.86-.63c.22-.11.44-.19.68-.25Z"/>
    <g class="cls-9">
      <path class="cls-11" d="M209.31,177.84c-.21.12-.42.22-.65.3l-1.84.72c-1.55.59-3.71,1.4-6.13,2.28h-.1l-.06-.09-.24-.32c-1.61-2.12-3-4.05-4.09-5.46l-1.2-1.63c-.15-.2-.29-.42-.41-.64.19.17.35.36.5.57l1.29,1.62c1.07,1.37,2.54,3.28,4.14,5.4l.25.33h-.16c2.41-.88,4.58-1.66,6.16-2.2l1.86-.63c.22-.11.44-.19.68-.25Z"/>
    </g>
    <path class="cls-11" d="M198.84,178.62c-1.15.71-2.34,1.35-3.57,1.9-1.19.63-2.43,1.18-3.7,1.65,1.14-.72,2.33-1.36,3.57-1.91,1.19-.63,2.43-1.18,3.7-1.64Z"/>
    <g class="cls-9">
      <path class="cls-11" d="M198.84,178.62c-1.15.71-2.34,1.35-3.57,1.9-1.19.63-2.43,1.18-3.7,1.65,1.14-.72,2.33-1.36,3.57-1.91,1.19-.63,2.43-1.18,3.7-1.64Z"/>
    </g>
    <path class="cls-11" d="M206.57,187.09c-.65-1.12-1.21-2.29-1.68-3.5-.56-1.17-1.03-2.38-1.42-3.62,1.21,2.29,2.25,4.67,3.1,7.12h0Z"/>
    <g class="cls-9">
      <path class="cls-11" d="M206.57,187.09c-.65-1.12-1.21-2.29-1.68-3.5-.56-1.17-1.03-2.38-1.42-3.62,1.21,2.29,2.25,4.67,3.1,7.12h0Z"/>
    </g>
    <path class="cls-5" d="M91,63.07c-2.84,11.18-14.2,17.93-25.38,15.1-11.18-2.84-17.93-14.2-15.1-25.38,2.84-11.17,14.2-17.93,25.37-15.1,11.18,2.84,17.93,14.2,15.1,25.38Z"/>
    <path class="cls-6" d="M78.47,46.61c.37.15-2,7.14-5.3,15.62-.49,1.23-1,2.41-1.41,3.57l-.25.63-.63-.24c-6.77-2.61-11.72-4.76-11.6-5.07s5.26,1.31,12.08,3.78l-.88.4c.44-1.16.9-2.35,1.37-3.58,3.29-8.49,6.26-15.22,6.62-15.11Z"/>
  </g>
</svg>