<svg width="1854" height="872" viewBox="0 0 1854 872" fill="none" xmlns="http://www.w3.org/2000/svg">
<path d="M431.91 51.8248C431.91 63.9942 427.72 74.1354 419.339 82.2483C411.098 90.2214 398.456 94.2079 381.415 94.2079H353.339V155.265H334.273V9.02213H381.415C397.898 9.02213 410.399 13.0087 418.92 20.9817C427.58 28.9548 431.91 39.2358 431.91 51.8248ZM381.415 78.4716C392.031 78.4716 399.853 76.1636 404.882 71.5476C409.91 66.9317 412.424 60.3574 412.424 51.8248C412.424 33.7806 402.088 24.7584 381.415 24.7584H353.339V78.4716H381.415Z" fill="#05192F"/>
<path d="M505.683 157.153C494.928 157.153 485.15 154.705 476.35 149.809C467.69 144.914 460.845 137.99 455.817 129.038C450.928 119.945 448.484 109.455 448.484 97.565C448.484 85.8152 450.998 75.4642 456.026 66.512C461.195 57.4199 468.179 50.496 476.979 45.7401C485.778 40.8444 495.626 38.3965 506.521 38.3965C517.416 38.3965 527.264 40.8444 536.064 45.7401C544.864 50.496 551.778 57.35 556.806 66.3022C561.974 75.2544 564.559 85.6753 564.559 97.565C564.559 109.455 561.905 119.945 556.597 129.038C551.429 137.99 544.375 144.914 535.435 149.809C526.496 154.705 516.578 157.153 505.683 157.153ZM505.683 140.368C512.527 140.368 518.953 138.759 524.959 135.542C530.965 132.325 535.784 127.499 539.416 121.064C543.187 114.63 545.073 106.797 545.073 97.565C545.073 88.333 543.257 80.4998 539.626 74.0654C535.994 67.631 531.245 62.8752 525.378 59.7979C519.511 56.5807 513.156 54.9721 506.312 54.9721C499.327 54.9721 492.902 56.5807 487.036 59.7979C481.309 62.8752 476.699 67.631 473.207 74.0654C469.715 80.4998 467.969 88.333 467.969 97.565C467.969 106.937 469.645 114.84 472.998 121.274C476.49 127.709 481.099 132.534 486.826 135.752C492.553 138.829 498.839 140.368 505.683 140.368Z" fill="#05192F"/>
<path d="M742.579 40.2849L706.75 155.265H687.055L659.398 63.9942L631.741 155.265H612.046L576.009 40.2849H595.494L621.894 136.801L650.389 40.2849H669.874L697.741 137.011L723.722 40.2849H742.579Z" fill="#05192F"/>
<path d="M866.262 93.3686C866.262 97.0054 866.052 100.852 865.633 104.909H773.863C774.561 116.239 778.402 125.121 785.386 131.555C792.51 137.85 801.101 140.997 811.158 140.997C819.399 140.997 826.243 139.109 831.691 135.332C837.278 131.415 841.189 126.24 843.424 119.806H863.957C860.884 130.856 854.738 139.878 845.519 146.872C836.3 153.726 824.846 157.153 811.158 157.153C800.263 157.153 790.485 154.705 781.825 149.809C773.304 144.914 766.599 137.99 761.71 129.038C756.822 119.945 754.377 109.455 754.377 97.565C754.377 85.6753 756.752 75.2544 761.501 66.3022C766.25 57.35 772.885 50.496 781.405 45.7401C790.066 40.8444 799.983 38.3965 811.158 38.3965C822.053 38.3965 831.691 40.7745 840.072 45.5303C848.453 50.2862 854.878 56.8604 859.348 65.2531C863.957 73.5059 866.262 82.8778 866.262 93.3686ZM846.567 89.3821C846.567 82.1084 844.96 75.8839 841.748 70.7084C838.535 65.393 834.135 61.4065 828.548 58.7488C823.1 55.9512 817.024 54.5525 810.32 54.5525C800.682 54.5525 792.44 57.6298 785.596 63.7844C778.891 69.939 775.05 78.4716 774.072 89.3821H846.567Z" fill="#05192F"/>
<path d="M910.496 58.9586C913.848 52.3843 918.597 47.2788 924.743 43.642C931.029 40.0051 938.641 38.1867 947.581 38.1867V57.9095H942.552C921.181 57.9095 910.496 69.5194 910.496 92.7392V155.265H891.429V40.2849H910.496V58.9586Z" fill="#05192F"/>
<path d="M1074.35 93.3686C1074.35 97.0054 1074.14 100.852 1073.72 104.909H981.952C982.651 116.239 986.492 125.121 993.476 131.555C1000.6 137.85 1009.19 140.997 1019.25 140.997C1027.49 140.997 1034.33 139.109 1039.78 135.332C1045.37 131.415 1049.28 126.24 1051.51 119.806H1072.05C1068.97 130.856 1062.83 139.878 1053.61 146.872C1044.39 153.726 1032.94 157.153 1019.25 157.153C1008.35 157.153 998.574 154.705 989.914 149.809C981.394 144.914 974.689 137.99 969.8 129.038C964.911 119.945 962.467 109.455 962.467 97.565C962.467 85.6753 964.841 75.2544 969.591 66.3022C974.34 57.35 980.974 50.496 989.495 45.7401C998.155 40.8444 1008.07 38.3965 1019.25 38.3965C1030.14 38.3965 1039.78 40.7745 1048.16 45.5303C1056.54 50.2862 1062.97 56.8604 1067.44 65.2531C1072.05 73.5059 1074.35 82.8778 1074.35 93.3686ZM1054.66 89.3821C1054.66 82.1084 1053.05 75.8839 1049.84 70.7084C1046.62 65.393 1042.22 61.4065 1036.64 58.7488C1031.19 55.9512 1025.11 54.5525 1018.41 54.5525C1008.77 54.5525 1000.53 57.6298 993.685 63.7844C986.981 69.939 983.14 78.4716 982.162 89.3821H1054.66Z" fill="#05192F"/>
<path d="M1092.39 97.3551C1092.39 85.6054 1094.77 75.3243 1099.52 66.512C1104.27 57.5598 1110.76 50.6359 1119 45.7401C1127.38 40.8444 1136.74 38.3965 1147.08 38.3965C1156.02 38.3965 1164.33 40.4947 1172.01 44.691C1179.7 48.7475 1185.56 54.1328 1189.61 60.847V0H1208.89V155.265H1189.61V133.654C1185.84 140.508 1180.25 146.173 1172.85 150.649C1165.45 154.985 1156.79 157.153 1146.87 157.153C1136.67 157.153 1127.38 154.635 1119 149.6C1110.76 144.564 1104.27 137.5 1099.52 128.408C1094.77 119.316 1092.39 108.965 1092.39 97.3551ZM1189.61 97.565C1189.61 88.8925 1187.87 81.3391 1184.37 74.9047C1180.88 68.4703 1176.13 63.5746 1170.13 60.2175C1164.26 56.7206 1157.77 54.9721 1150.64 54.9721C1143.52 54.9721 1137.02 56.6506 1131.16 60.0077C1125.29 63.3648 1120.61 68.2605 1117.12 74.6949C1113.63 81.1293 1111.88 88.6827 1111.88 97.3551C1111.88 106.167 1113.63 113.861 1117.12 120.435C1120.61 126.869 1125.29 131.835 1131.16 135.332C1137.02 138.689 1143.52 140.368 1150.64 140.368C1157.77 140.368 1164.26 138.689 1170.13 135.332C1176.13 131.835 1180.88 126.869 1184.37 120.435C1187.87 113.861 1189.61 106.237 1189.61 97.565Z" fill="#05192F"/>
<path d="M1316.03 61.6862C1319.95 54.8322 1325.67 49.2371 1333.22 44.9009C1340.76 40.5646 1349.35 38.3965 1358.99 38.3965C1369.32 38.3965 1378.61 40.8444 1386.85 45.7401C1395.09 50.6359 1401.59 57.5598 1406.34 66.512C1411.09 75.3243 1413.46 85.6054 1413.46 97.3551C1413.46 108.965 1411.09 119.316 1406.34 128.408C1401.59 137.5 1395.02 144.564 1386.64 149.6C1378.4 154.635 1369.18 157.153 1358.99 157.153C1349.07 157.153 1340.34 154.985 1332.8 150.649C1325.39 146.312 1319.81 140.787 1316.03 134.073V155.265H1296.97V0H1316.03V61.6862ZM1393.98 97.3551C1393.98 88.6827 1392.23 81.1293 1388.74 74.6949C1385.25 68.2605 1380.5 63.3648 1374.49 60.0077C1368.62 56.6506 1362.13 54.9721 1355.01 54.9721C1348.02 54.9721 1341.53 56.7206 1335.52 60.2175C1329.65 63.5746 1324.9 68.5403 1321.27 75.1145C1317.78 81.5489 1316.03 89.0324 1316.03 97.565C1316.03 106.237 1317.78 113.861 1321.27 120.435C1324.9 126.869 1329.65 131.835 1335.52 135.332C1341.53 138.689 1348.02 140.368 1355.01 140.368C1362.13 140.368 1368.62 138.689 1374.49 135.332C1380.5 131.835 1385.25 126.869 1388.74 120.435C1392.23 113.861 1393.98 106.167 1393.98 97.3551Z" fill="#05192F"/>
<path d="M1537.45 40.2849L1468.31 209.397H1448.62L1471.24 154.006L1424.94 40.2849H1446.1L1482.14 133.444L1517.76 40.2849H1537.45Z" fill="#05192F"/>
<path d="M1662.12 276.917C1556.13 276.917 1470.24 363.529 1470.24 470.41C1470.24 577.291 1556.13 663.903 1662.12 663.903C1768.11 663.903 1854 577.291 1854 470.41C1854 363.655 1768.11 276.917 1662.12 276.917ZM1778.1 523.662C1778.1 532.474 1773.48 540.531 1765.86 544.937L1674.23 598.314C1666.62 602.721 1657.38 602.721 1649.76 598.314L1558.13 544.937C1550.51 540.531 1545.89 532.348 1545.89 523.662V417.158C1545.89 408.346 1550.51 400.289 1558.13 395.883L1603.95 369.194L1649.76 342.505C1657.38 338.099 1666.62 338.099 1674.23 342.505L1765.86 395.883C1773.48 400.289 1778.1 408.472 1778.1 417.158V523.662Z" fill="#05192F"/>
<path d="M1604.2 504.149L1662.12 538.013L1720.05 504.149V436.671L1662.12 402.933L1604.2 436.671V504.149Z" fill="white"/>
<path d="M1604.2 504.149V436.671L1662.12 402.933L1604.2 369.194L1558.38 395.883C1550.76 400.289 1546.14 408.472 1546.14 417.158V523.662C1546.14 532.474 1550.76 540.531 1558.38 544.937L1604.2 571.626V504.149Z" fill="#EFC257"/>
<path d="M1720.05 504.149L1662.12 537.887L1604.2 504.149V571.626L1650.01 598.314C1657.63 602.721 1666.86 602.721 1674.48 598.314L1766.11 544.937C1773.73 540.531 1778.35 532.348 1778.35 523.662V470.41L1720.05 504.149Z" fill="#60C5C5"/>
<path d="M1765.86 395.883L1674.23 342.505C1666.62 338.099 1657.38 338.099 1649.76 342.505L1603.95 369.194L1719.8 436.671V504.149L1777.72 470.41V417.158C1778.1 408.346 1773.48 400.289 1765.86 395.883Z" fill="#E03F55"/>
<path d="M0.12484 623.996L33.9565 546.825C65.1665 568.227 112.606 582.704 155.426 582.704C202.241 582.704 219.719 569.612 219.719 548.966C219.719 488.286 8.48913 550.35 8.48913 402.177C8.48913 331.805 68.2875 282.204 170.282 282.204C218.345 282.204 271.652 293.912 304.859 314.558L271.028 391.099C236.697 370.201 202.241 363.403 170.407 363.403C124.965 363.403 105.365 378.51 105.365 397.897C105.365 461.346 316.594 399.911 316.594 546.07C316.594 615.058 256.172 663.903 151.556 663.903C92.3817 663.903 32.5833 646.656 0.12484 623.996Z" fill="#05192F"/>
<path d="M731.188 287.491V663.526H635.062V614.177C608.471 646.531 569.396 663.777 526.575 663.777C438.813 663.777 377.142 611.407 377.142 496.973V287.491H478.512V481.237C478.512 543.3 504.479 570.87 549.296 570.87C596.111 570.87 629.818 539.146 629.818 470.914V287.491H731.188Z" fill="#05192F"/>
<path d="M1416.19 446.113V663.652H1314.82V462.605C1314.82 402.681 1289.47 375.111 1248.53 375.111C1203.08 375.111 1171.25 406.08 1171.25 472.298V663.652H1069.88V462.605C1069.88 402.681 1045.79 375.111 1003.59 375.111C958.772 375.111 926.938 406.08 926.938 472.298V663.652H825.567V287.491H922.443V330.294C948.41 298.57 987.485 282.078 1032.3 282.078C1080.99 282.078 1122.69 302.095 1147.28 342.757C1175.24 304.864 1220.69 282.078 1273.37 282.078C1356.39 282.078 1416.19 333.064 1416.19 446.113Z" fill="#05192F"/>
<path d="M46.5654 759.076C40.573 759.076 35.7043 760.335 31.9591 762.979C28.2139 765.497 26.2164 769.399 26.2164 774.687C26.2164 779.848 28.089 783.877 31.9591 786.646C35.7043 789.416 43.8189 792.311 56.3029 795.585C68.662 798.732 78.0251 803.264 84.2671 808.929C90.5091 814.72 93.6301 823.155 93.6301 834.359C93.6301 845.563 89.6352 854.627 81.6454 861.551C73.6556 868.475 63.2939 872 50.3106 872C31.4597 872 14.6063 865.076 0 851.228L12.8585 834.862C25.0929 846.067 37.7017 851.732 50.9348 851.732C57.5513 851.732 62.6697 850.221 66.5398 847.2C70.4098 844.178 72.2824 840.276 72.2824 835.24C72.2824 830.33 70.4098 826.428 66.7894 823.658C63.1691 820.889 56.9271 818.371 48.0634 816.105C39.1998 813.839 32.4584 811.824 27.8393 809.81C23.2203 807.922 19.1005 805.404 15.605 802.383C8.48913 796.592 4.86876 787.779 4.86876 775.946C4.86876 764.112 8.98849 754.922 17.1031 748.502C25.2177 742.081 35.3297 738.808 47.3144 738.808C55.0545 738.808 62.6697 740.193 70.285 742.837C77.9002 745.48 84.5167 749.383 90.0097 754.167L79.1486 770.532C75.5282 767.133 70.7843 764.238 64.6672 762.098C58.55 760.209 52.4328 759.076 46.5654 759.076Z" fill="#05192F"/>
<path d="M273.4 850.85C280.391 850.85 286.508 849.591 291.502 847.074C296.62 844.556 301.863 840.527 307.356 835.114L320.464 849.466C307.606 864.572 292.126 872 273.899 872C255.672 872 240.442 865.705 228.457 853.242C216.348 840.779 210.356 825.043 210.356 805.908C210.356 786.772 216.473 770.91 228.832 758.195C241.066 745.48 256.671 739.06 275.397 739.06C294.123 739.06 309.728 746.361 322.337 761.091L309.354 776.197C303.611 770.281 298.118 766.252 293 763.86C287.881 761.594 281.889 760.335 274.898 760.335C262.664 760.335 252.427 764.49 244.062 772.924C235.823 781.359 231.578 792.06 231.578 805.026C231.578 817.993 235.698 828.946 243.938 837.632C252.302 846.444 262.164 850.85 273.4 850.85Z" fill="#05192F"/>
<path d="M435.567 870.489V742.207H455.916V797.851H515.964V742.207H536.313V870.489H515.964V817.993H455.916V870.489H435.567Z" fill="#05192F"/>
<path d="M746.793 742.207V762.601H682.376V796.592H740.302V815.853H682.376V850.221H748.916V870.615H661.902V742.207H746.793Z" fill="#05192F"/>
<path d="M961.893 758.951C973.503 770.155 979.37 785.765 979.37 805.656C979.37 825.546 973.753 841.409 962.392 852.991C951.032 864.572 933.804 870.363 910.459 870.363H870.385V742.207H911.832C933.679 742.207 950.283 747.746 961.893 758.951ZM958.897 806.285C958.897 776.953 943.042 762.224 911.333 762.224H890.859V850.095H913.455C928.061 850.095 939.297 846.444 947.037 839.017C954.902 831.589 958.897 820.637 958.897 806.285Z" fill="#05192F"/>
<path d="M1121.94 841.031C1127.43 847.829 1134.92 851.354 1144.41 851.354C1153.9 851.354 1161.39 847.955 1166.88 841.031C1172.37 834.233 1175.12 824.917 1175.12 813.083V742.081H1195.47V814.09C1195.47 832.596 1190.72 846.822 1181.11 856.767C1171.5 866.713 1159.26 871.748 1144.28 871.748C1129.3 871.748 1117.07 866.713 1107.46 856.767C1097.84 846.822 1093.1 832.596 1093.1 814.09V742.207H1113.45V813.209C1113.7 824.917 1116.44 834.233 1121.94 841.031Z" fill="#05192F"/>
<path d="M1326.18 870.489V742.207H1346.53V849.843H1401.7V870.363H1326.18V870.489Z" fill="#05192F"/>
<path d="M1624.92 742.207V762.601H1560.38V796.592H1618.3V815.853H1560.38V850.221H1626.92V870.615H1540.03V742.207H1624.92Z" fill="#05192F"/>
<path d="M1848.51 783.877C1848.51 805.026 1839.77 818.371 1822.42 823.91L1854 870.489H1828.03L1799.2 827.435H1772.35V870.489H1752.01V742.207H1796.95C1815.42 742.207 1828.53 745.48 1836.52 752.152C1844.51 758.699 1848.51 769.274 1848.51 783.877ZM1821.29 802.005C1825.41 798.228 1827.53 792.186 1827.53 783.751C1827.53 775.316 1825.41 769.651 1821.17 766.504C1816.92 763.357 1809.31 761.846 1798.32 761.846H1772.35V807.67H1797.82C1809.31 807.67 1817.17 805.782 1821.29 802.005Z" fill="#05192F"/>
</svg>
