<?xml version="1.0" encoding="UTF-8"?>
<svg xmlns="http://www.w3.org/2000/svg" xmlns:xlink="http://www.w3.org/1999/xlink" viewBox="0 0 664.25 424.7">
  <defs>
    <style>
      .cls-1 {
        fill: none;
      }

      .cls-2 {
        fill: #2d2a4a;
      }

      .cls-3 {
        fill: #5f5b88;
      }

      .cls-4 {
        fill: #f8e8d3;
      }

      .cls-4, .cls-5, .cls-6, .cls-7, .cls-8, .cls-9 {
        mix-blend-mode: multiply;
      }

      .cls-10, .cls-5 {
        fill: #4b499e;
      }

      .cls-11 {
        fill: #b184bb;
      }

      .cls-12 {
        mix-blend-mode: overlay;
        opacity: .3;
      }

      .cls-12, .cls-13 {
        fill: #fff;
      }

      .cls-14 {
        fill: #f9ebf1;
      }

      .cls-15 {
        fill: #dcb7c6;
      }

      .cls-6, .cls-16 {
        fill: #c492a7;
      }

      .cls-17 {
        isolation: isolate;
      }

      .cls-18 {
        fill: #ecb58c;
      }

      .cls-19 {
        fill: #c89978;
      }

      .cls-20 {
        fill: #1b1938;
      }

      .cls-7, .cls-21 {
        fill: #423e67;
      }

      .cls-8 {
        fill: #bfbce8;
      }

      .cls-22 {
        fill: #e7998a;
      }

      .cls-9, .cls-23 {
        fill: #ebd3de;
      }

      .cls-24 {
        fill: #362a14;
      }

      .cls-25 {
        fill: #9a62a5;
      }

      .cls-26 {
        fill: #cf897e;
      }

      .cls-27 {
        clip-path: url(#clippath);
      }
    </style>
    <clipPath id="clippath">
      <rect class="cls-1" x="91.7" y="199.06" width="93.24" height="66.81" rx="1.95" ry="1.95"/>
    </clipPath>
  </defs>
  <g class="cls-17">
    <g id="Layer_2" data-name="Layer 2">
      <g id="OBJECTS">
        <path class="cls-14" d="M640.07,424.53c9.57-28.12,19.21-56.54,22.79-86.33,3.58-29.79.6-61.52-13.63-87.1-19.54-35.11-56.9-53.64-78.54-87.19-26.86-41.64-26.4-101.4-58.99-137.65-18.28-20.33-45.74-29.95-71.23-24.96-31.72,6.21-56.98,32.55-77.7,59.91-17.27,22.82-33.04,47.07-53.83,66.19-19.78,18.19-44.56,27.68-67.66,39.3-32.78,16.48-58.58,40.21-70.69,78.7-12.78,40.61-10.7,85.71-4.57,127.53,1.92,13.08,4.29,51.23,21.29,51.23-.24,0,.35-.26.12-.26l449.8.79h.71l2.12-.17Z"/>
        <g>
          <rect class="cls-15" x="475.05" y="143.77" width="171.93" height="9.53"/>
          <g>
            <polygon class="cls-16" points="641.81 143.77 556.85 143.77 562.02 88.36 646.98 88.36 641.81 143.77"/>
            <polygon class="cls-6" points="639.61 92.89 635.29 139.23 564.22 139.23 568.55 92.89 639.61 92.89"/>
            <polygon class="cls-15" points="636.96 121.32 635.29 139.23 564.22 139.23 565.95 120.72 590.11 96.76 608.95 123.45 626.02 109.68 636.96 121.32"/>
          </g>
          <g>
            <polygon class="cls-16" points="550.67 143.77 481.18 143.77 488.82 60.46 558.3 60.46 550.67 143.77"/>
            <g>
              <path class="cls-6" d="M542.99,91.06c-1.13,12.28-12,22.24-24.28,22.24s-21.33-9.96-20.2-22.24,11.99-22.24,24.28-22.24,21.33,9.96,20.2,22.24Z"/>
              <path class="cls-15" d="M531.29,90.15l-15.94-8.76c-.63-.34-1.4.07-1.46.78l-1.6,17.52c-.07.77.73,1.32,1.43.98l17.54-8.76c.71-.36.73-1.37.03-1.75Z"/>
            </g>
            <path class="cls-15" d="M534.08,120.18h-31.99c-.38,0-.66-.31-.63-.69h0c.03-.38.37-.69.75-.69h31.99c.38,0,.66.31.63.69h0c-.03.38-.37.69-.75.69Z"/>
            <path class="cls-15" d="M532.41,123.34h-29.23c-.37,0-.63-.3-.6-.66v-.06c.04-.37.36-.66.73-.66h29.23c.36,0,.63.3.6.66v.06c-.04.37-.36.66-.73.66Z"/>
            <path class="cls-15" d="M530.41,126.49h-25.8c-.34,0-.6-.28-.57-.62v-.14c.04-.34.35-.62.69-.62h25.8c.34,0,.6.28.56.62v.14c-.04.34-.35.62-.69.62Z"/>
          </g>
        </g>
        <g>
          <path class="cls-18" d="M352.8,242.75s12.36-50.51,5.42-52.03c-6.95-1.52-11.89,19.68-11.89,19.68,0,0-26.27-27.02-33.76-27.79-6.73-.7-10.38,35.68-8.78,42.07,1.5,5.99,23.7,23.29,23.7,23.29l25.32-5.21Z"/>
          <g>
            <rect class="cls-21" x="295.01" y="181.7" width="68.94" height="38.48" rx="1.94" ry="1.94" transform="translate(85.88 500.25) rotate(-82.24)"/>
            <path class="cls-3" d="M349.55,172.3l-31.75-4.33s-.05,0-.08,0c-.95-.09-1.8.56-1.93,1.49l-7.93,58.14c-.13.95.56,1.83,1.54,1.97l31.75,4.33c.99.13,1.88-.53,2.01-1.48l7.93-58.14c.13-.95-.56-1.83-1.54-1.97Z"/>
            <path class="cls-7" d="M337.72,169.29l-7.72-1.05c-.23-.03-.39-.24-.36-.48h0c.03-.23.24-.39.48-.36l7.72,1.05c.23.03.39.24.36.48h0c-.03.23-.24.39-.48.36Z"/>
            <path class="cls-7" d="M339.82,169.15c-.03.23-.24.39-.48.36-.23-.03-.39-.24-.36-.48s.24-.39.48-.36c.23.03.39.24.36.48Z"/>
            <path class="cls-12" d="M344.52,222.49l-1.35,9.92c-.13.95-1.03,1.62-2.01,1.48l-11.47-1.56-18.4-29.74,3.95-29.01,29.29,48.91Z"/>
            <polygon class="cls-12" points="347.14 203.22 345.59 214.62 317.72 167.97 325.94 169.08 347.14 203.22"/>
          </g>
          <g>
            <path class="cls-10" d="M422.78,265.54c-18.52,15.16-37.89,59.79-39.01,59.67-1.19-.13-24.37-84.43-24.37-84.43,0,0-20.08-2.11-36.8,9.24,0,0,9.22,120.76,49.86,120.76s67.96-36.39,67.96-36.39l-17.64-68.86Z"/>
            <path class="cls-10" d="M423.24,383.23h136.8c-2.93-24.49-5.37-49.39-4.11-63.24,1.22-13.45,5.08-56.41,5.08-56.41,0,0-25.81-20.84-69.49-20.84-39.27,0-68.74,22.79-68.74,22.79,0,0,7.74,41.23,8.1,54.46.38,13.93-3.24,38.79-7.63,63.24Z"/>
            <g>
              <path class="cls-25" d="M541.89,309.28c-1.12-1.01-2.79-1.03-4.3-.99-7.72.21-15.43.36-23.15.46-14.04.19-28.08.21-42.12.06-6.98-.07-13.96-.19-20.94-.35-2.09-.05-6.13-1.08-7.43.96-1.11,1.75-.78,6.14-1.12,8.21-.46,2.8-.29,6.15,1.99,7.83,1.4,1.03,3.25,1.16,4.99,1.23,5.7.24,11.41.32,17.12.23,2.97-.04,6.02-.15,8.75-1.32,1.81-.78,3.46-2.02,5.4-2.35,2.57-.44,5.09.77,7.56,1.6,13.97,4.73,29.52-2.33,43.94.78,2.4.52,5.17,1.24,7.1-.27.85-.66,1.36-1.66,1.78-2.65,1.28-3.02,1.88-6.33,1.75-9.61-.05-1.39-.3-2.9-1.34-3.84Z"/>
              <path class="cls-25" d="M533.59,328.82c-13.34-.02-26.87,4.42-39.82,1.21-2.84-.7-5.7-1.78-8.61-1.46-2.1.23-4.04,1.17-6.04,1.85-3.13,1.07-6.43,1.51-9.73,1.59-5.9.15-11.75-.78-17.63-1.12-1.67-.1-5.05-.83-6.57.12-.91.57-1.25,2.04-1.61,2.97-.52,1.32-.99,2.66-1.4,4.02-.51,1.68-.9,3.64.08,5.1,1.15,1.71,3.56,1.89,5.62,1.89,27.14.02,54.28.04,81.42.06,2.35,0,4.89-.06,6.77-1.47,2.04-1.54,2.73-4.26,3.29-6.76.49-2.2.88-4.79-.63-6.46-1.24-1.36-3.3-1.54-5.14-1.55Z"/>
            </g>
          </g>
          <g>
            <path class="cls-20" d="M511.24,184.17c3.87-8.48,5.54-17.83,6.14-27.13.2-3.14.26-6.41-.96-9.31-1.23-2.9-4.07-5.34-7.21-5.12,2.15-2.1,1.46-6.17-.37-8.55-1.83-2.38-4.67-3.72-7.4-4.97-4.17-1.91-8.34-3.83-12.63-5.43-13.79-5.14-28.66-6.97-43.37-6.64-6.08.14-12.8.93-16.87,5.46-2.7,3.01-3.73,7.23-3.64,11.27.09,4.04,1.2,7.98,2.29,11.88-2.56,2.36-3.64,6-3.64,9.49,0,3.49.96,6.89,1.92,10.25,2.14,7.54,4.53,15.49,10.31,20.77,4.61,4.21,10.82,6.18,16.89,7.65,9.85,2.4,20.06,3.84,30.13,2.64,10.07-1.2,24.19-3.05,28.4-12.27Z"/>
            <path class="cls-18" d="M504.2,170.8c-1.61,28.76-2.36,79.98-2.36,79.98-8.23,10.29-32.14,4.96-30.97,1.26.66-2.09.75-5.9.04-9.46-.55-2.76-1.58-5.37-3.19-6.93-.67-.65-1.98-1.03-3.72-1.33-.28-.04-.43-.06-.43-.06-7.99-1.22-23.96-.68-29.15-11.43-6.46-13.37-1.98-46.97,1.52-62.95,2.01-9.14,12.03-20.8,28.44-21.03,20.07-.3,41.45,3.01,39.82,31.95Z"/>
            <path class="cls-20" d="M438.83,156.59c1.88,1.61,4.28,2.47,6.66,3.12,12.21,3.35,25.32,2.24,37.49-1.23-1.71.67-1.36,3.48.21,4.43,1.57.96,3.57.63,5.37.28-1.28,7.61,1.17,15.77,6.43,21.41,1.82,1.96,4.25,3.71,6.91,3.5,2.15-.17,4-1.61,5.44-3.22,4.29-4.84,5.89-11.62,5.51-18.08-.51-8.64-4.36-16.95-10.17-23.36-5.82-6.41-13.52-10.99-21.76-13.64-8.82-2.84-18.62-3.5-27.24-.12-4.36,1.71-8.3,4.53-11.29,8.13-1.5,1.8-2.76,3.8-3.68,5.95-.87,2.03-1.32,4.16-2.24,6.16-1.09,2.38.53,5.09,2.35,6.66Z"/>
            <path class="cls-4" d="M492.97,230.71c-7.45,2.26-15.19,3.4-22.98,3.37-.89,0-.89,1.38,0,1.38,7.9.03,15.78-1.13,23.34-3.42.85-.26.49-1.59-.37-1.33Z"/>
            <g>
              <path class="cls-22" d="M442.35,190.72c0,1.68-2.2,3.05-4.91,3.05s-4.91-1.36-4.91-3.05,2.2-3.05,4.91-3.05,4.91,1.36,4.91,3.05Z"/>
              <path class="cls-22" d="M467.28,190.72c0,1.68-2.2,3.05-4.91,3.05s-4.91-1.36-4.91-3.05,2.2-3.05,4.91-3.05,4.91,1.36,4.91,3.05Z"/>
              <path class="cls-20" d="M445.59,171.52c-2.3-.52-4.75-.12-6.75,1.14-.75.47-.06,1.67.7,1.19,1.69-1.06,3.74-1.44,5.69-1,.36.08.75-.11.85-.48.1-.35-.12-.77-.48-.85Z"/>
              <path class="cls-20" d="M460.57,172.59c-2.08-1.09-4.44-1.44-6.75-1.04-.37.06-.58.52-.48.85.11.39.48.55.85.48,1.93-.34,3.96,0,5.69.9.79.41,1.49-.78.7-1.19Z"/>
              <path class="cls-19" d="M450.21,193.92c-.64-.23-1.34-.29-1.97,0-.59.27-.97.9-1.05,1.52-.09.65.1,1.31.49,1.84.4.55.92.95,1.48,1.33.3.2.78.07.95-.25.18-.35.07-.73-.25-.95-.1-.07-.2-.13-.3-.2-.05-.03-.1-.07-.15-.11.12.09-.04-.03-.05-.04-.18-.15-.34-.31-.49-.49-.01-.02-.03-.04-.05-.06-.03-.05-.06-.1-.09-.15-.03-.05-.05-.1-.08-.15,0-.01,0,0,0-.01,0,0,0,0,0,0-.03-.11-.06-.21-.09-.32,0-.02,0-.04,0-.06,0-.05,0-.1,0-.15,0-.01,0-.01,0-.02,0-.04.02-.1.03-.12.01-.04.02-.08.04-.11.01-.02.02-.03.03-.04,0-.01.04-.06.06-.09.01-.01.03-.03.04-.04.01-.01.02-.02.03-.03.03-.02.11-.07.11-.07-.11.07-.01,0,.04-.01.04-.01.09-.02.13-.03.02,0,.04,0,.07,0,.06,0,.11,0,.17,0,.02,0,.01,0,.02,0,0,0,0,0,.02,0,.05.01.09.02.14.03.12.03.24.07.36.11.34.12.77-.14.85-.48.09-.39-.12-.72-.48-.85Z"/>
              <g>
                <path class="cls-22" d="M462.38,207.91c-.12.54-.3,1.02-.54,1.48-1.73,3.21-6.09,4.4-9.52,4.4-1.62,0-3.22-.24-4.59-.66-1.11-.35-2.03-.9-2.75-1.67-.82-.86-1.33-1.98-1.44-3.35-.11-1.63.5-3.24,1.81-4.07.33-.22.71-.39,1.12-.5,1.4-.36,2.88-.04,4.3-.04,2.6-.01,5.15-1.47,7.75-1.36.25,0,.5.03.76.07,2.71.44,3.65,3.25,3.1,5.7Z"/>
                <path class="cls-13" d="M458.4,203.93c-.39.68-1.2.97-1.95,1.2-2.64.83-5.38,1.69-8.14,1.37-.59-.07-1.18-.19-1.7-.46-.51-.28-.97-.71-1.18-1.26-.08-.24-.11-.5-.08-.75.33-.22.71-.39,1.12-.5,1.4-.36,2.88-.04,4.3-.04,2.6-.01,5.15-1.47,7.75-1.36,0,.01.01.04.01.06.14.58.17,1.22-.14,1.73Z"/>
                <path class="cls-26" d="M461.85,209.39c-1.73,3.21-6.09,4.4-9.52,4.4-1.62,0-3.22-.24-4.59-.66-1.11-.35-2.03-.9-2.75-1.67.11-.21.24-.4.37-.58.35-.48.76-.9,1.22-1.27,1-.79,2.19-1.31,3.4-1.67,3.93-1.2,8.44-.79,11.87,1.47Z"/>
              </g>
              <path class="cls-24" d="M459.67,183.43c-.49-.75-.95-1.54-1.49-2.25-.54-.72-1.29-1.21-2.23-1.15-.85.06-1.62.49-2.17,1.13-.6.69-.94,1.53-1.26,2.37-.13.35.15.76.48.85.39.11.72-.13.85-.48.37-.97.95-2.46,2.19-2.49.55-.01.87.35,1.15.77.43.64.85,1.3,1.27,1.95.2.31.61.44.95.25.31-.18.45-.63.25-.95Z"/>
              <path class="cls-24" d="M438.49,183.43c.49-.75.95-1.54,1.49-2.25.54-.72,1.29-1.21,2.23-1.15.85.06,1.62.49,2.17,1.13.6.69.94,1.53,1.26,2.37.13.35-.15.76-.48.85-.39.11-.72-.13-.85-.48-.37-.97-.95-2.46-2.19-2.49-.55-.01-.87.35-1.15.77-.43.64-.85,1.3-1.27,1.95-.2.31-.61.44-.95.25-.31-.18-.45-.63-.25-.95Z"/>
            </g>
            <g>
              <path class="cls-18" d="M499.12,183.86c2.79-2.37,6.51-3.9,10.18-3,3.62.89,6.11,3.86,6.47,7.55.24,2.49-.38,4.98-1.21,7.33-.88,2.47-2.01,4.88-3.6,6.97-3,3.94-8.46,7.08-13.36,4.53-6.53-3.4-5.63-11.97-2.95-17.62,1-2.11,2.56-4.16,4.46-5.77Z"/>
              <path class="cls-19" d="M508.47,187.01c-3.19-.11-5.75,2.12-7.46,4.59-1.78,2.56-2.94,5.5-3.39,8.58-.12.81,1.14,1.07,1.26.25.36-2.44,1.2-4.79,2.45-6.91.03,0,.07,0,.1,0,1.76-.53,3.69-.49,5.42.14.32.12.69.04.86-.29.14-.28.04-.74-.29-.86-1.66-.61-3.42-.76-5.14-.48,1.51-2.05,3.59-3.83,6.28-3.74.82.03.73-1.25-.09-1.28Z"/>
            </g>
          </g>
          <path class="cls-18" d="M476.06,343.2s-6.77-19.57-11.64-18.79c-4.86.78-2.78,14.18-2.78,14.18,0,0-19.72-2.1-21.94,4.43-2.22,6.53,1.05,24.97,12.3,27.08,11.24,2.11,23.14-4.48,23.14-4.48l.92-22.42Z"/>
          <path class="cls-10" d="M561.01,263.59c20.47,13.93,48.79,92.07,34.13,106.93h-119.13s-6.42-24.05,1.83-33.94c0,0,72.79-1.01,74.44-2.89,2.13-2.42,8.73-70.1,8.73-70.1Z"/>
          <path class="cls-5" d="M556.5,291.2c-.86,7.54-1.72,15.09-2.57,22.63-.41,3.64-.73,7.31-1.27,10.94-.45,2.95-1.25,6.02-3.56,8.08-2.18,1.94-5.2,2.6-8.03,2.84-3.28.28-6.6.14-9.89.12-7.63-.03-15.27-.06-22.9-.09-8.61-.03-17.22-.06-25.83-.1-.89,0-.89,1.38,0,1.38l47.52.18c3.47.01,6.98.16,10.44-.07,2.84-.19,5.79-.68,8.24-2.22,5.71-3.6,5.56-11.39,6.24-17.33,1-8.79,2-17.58,3-26.37.1-.88-1.28-.88-1.38,0Z"/>
        </g>
        <g>
          <rect class="cls-16" x="262.28" y="362.96" width="158.09" height="7.56"/>
          <path class="cls-23" d="M336.9,370.51h-155.15c-.7,0-1.29-.53-1.37-1.23l-12.09-113.12c-.09-.81.55-1.52,1.37-1.52h155.15c.7,0,1.29.53,1.37,1.23l12.09,113.12c.09.81-.55,1.52-1.37,1.52Z"/>
          <circle class="cls-9" cx="249.57" cy="312.19" r="17.98" transform="translate(-98.2 509.16) rotate(-80.89)"/>
        </g>
        <g>
          <path class="cls-11" d="M307.62,338.45s12.57-32.87,10.01-59.99c0,0-26.97,18.11-29.2,59.99h19.19Z"/>
          <path class="cls-25" d="M282.84,338.45c-6.86-7.76-11.45-17.34-14.3-27.3-2.85-9.96-4.03-20.32-4.64-30.67,10.4,6.09,19.07,14.05,25.69,24.11,6.62,10.06,10.88,21.67,12.34,33.63-.26-.03-.54-.05-.8-.05l-18.28.28Z"/>
          <path class="cls-25" d="M294.95,338.16l21.31.28c5.41-5.64,9.17-12.71,11.63-20.13,2.46-7.42,3.67-15.19,4.42-22.97-18.03,7.89-32.32,23.8-37.36,42.82Z"/>
          <path class="cls-10" d="M299.3,336.69h-21.41c-.74,0-1.31.67-1.19,1.4l5.07,31.67c.09.59.6,1.02,1.19,1.02h32.67c.59,0,1.1-.43,1.19-1.02l5.07-31.67c.12-.73-.45-1.4-1.19-1.4h-21.41Z"/>
        </g>
        <g>
          <path class="cls-21" d="M491.77,327.96l42.73,25.42c1.77,1.06,4.07.47,5.12-1.3l6.85-11.51c1.06-1.77.47-4.07-1.3-5.12l-42.73-25.42-10.67,17.94Z"/>
          <path class="cls-2" d="M481.65,304.15l-4.96,8.34c-1.58,2.65-.71,6.07,1.94,7.65l13.14,7.82,10.67-17.94-13.14-7.82c-2.65-1.58-6.07-.71-7.65,1.94Z"/>
          <path class="cls-2" d="M481.65,304.15l-4.96,8.34c-1.58,2.65-.71,6.07,1.94,7.65l13.14,7.82,10.67-17.94-13.14-7.82c-2.65-1.58-6.07-.71-7.65,1.94Z"/>
          <path class="cls-2" d="M522.33,332.61c0,3.52-2.85,6.37-6.37,6.37s-6.37-2.85-6.37-6.37,2.85-6.37,6.37-6.37,6.37,2.85,6.37,6.37Z"/>
          <path class="cls-8" d="M545.17,335.45h-.03s-5.52,9.26-5.52,9.26c-1.06,1.77-3.35,2.36-5.12,1.3l-39.49-23.49-3.24,5.44,42.73,25.42c1.77,1.06,4.07.47,5.12-1.3l6.85-11.51c1.06-1.77.47-4.07-1.3-5.12Z"/>
          <path class="cls-21" d="M515.96,366.5h0c-1.42,0-2.57-1.15-2.57-2.57v-31.25c0-1.42,1.15-2.57,2.57-2.57h0c1.42,0,2.57,1.15,2.57,2.57v31.25c0,1.42-1.15,2.57-2.57,2.57Z"/>
          <path class="cls-2" d="M531.42,364.38h-30.91c-1.69,0-3.07,1.37-3.07,3.07s1.37,3.07,3.07,3.07h30.91c1.7,0,3.07-1.37,3.07-3.07s-1.37-3.07-3.07-3.07Z"/>
        </g>
        <g>
          <rect class="cls-15" x="43.05" y="370.51" width="621.2" height="53.85"/>
          <rect class="cls-6" x="43.05" y="385.22" width="621.14" height="10"/>
        </g>
        <g>
          <g>
            <rect class="cls-21" x="193.45" y="179.66" width="25.34" height="7.13" rx="1.48" ry="1.48"/>
            <rect class="cls-20" x="79.72" y="184.8" width="152.04" height="91.85" rx="2.08" ry="2.08"/>
            <rect class="cls-20" x="124.21" y="167.98" width="42.17" height="23.36" rx="4.4" ry="4.4"/>
            <rect class="cls-21" x="131.29" y="171.62" width="28.01" height="17.42" rx="2.47" ry="2.47"/>
            <path class="cls-21" d="M79.72,193.75h-2.41c-1.33,0-2.41-1.08-2.41-2.41h0c0-1.33,1.08-2.41,2.41-2.41h2.41v4.83Z"/>
            <rect class="cls-21" x="91.7" y="199.06" width="93.24" height="66.81" rx="1.95" ry="1.95"/>
            <g class="cls-27">
              <g>
                <g>
                  <path class="cls-18" d="M128.46,229.6s2.5-10.22,1.1-10.52c-1.41-.31-2.41,3.98-2.41,3.98,0,0-5.31-5.46-6.83-5.62-1.36-.14-2.1,7.22-1.78,8.51.3,1.21,4.79,4.71,4.79,4.71l5.12-1.05Z"/>
                  <g>
                    <rect class="cls-21" x="116.78" y="217.25" width="13.94" height="7.78" rx=".39" ry=".39" transform="translate(-112.08 313.89) rotate(-82.24)"/>
                    <path class="cls-3" d="M127.81,215.35l-6.42-.88s-.01,0-.02,0c-.19-.02-.36.11-.39.3l-1.6,11.76c-.03.19.11.37.31.4l6.42.88c.2.03.38-.11.41-.3l1.6-11.76c.03-.19-.11-.37-.31-.4Z"/>
                    <path class="cls-7" d="M125.41,214.74l-1.56-.21s-.08-.05-.07-.1h0s.05-.08.1-.07l1.56.21s.08.05.07.1h0s-.05.08-.1.07Z"/>
                    <path class="cls-7" d="M125.84,214.72s-.05.08-.1.07-.08-.05-.07-.1c0-.05.05-.08.1-.07s.08.05.07.1Z"/>
                    <path class="cls-12" d="M126.79,225.5l-.27,2.01c-.03.19-.21.33-.41.3l-2.32-.32-3.72-6.01.8-5.87,5.92,9.89Z"/>
                    <polygon class="cls-12" points="127.32 221.6 127.01 223.91 121.37 214.48 123.03 214.7 127.32 221.6"/>
                  </g>
                  <g>
                    <path class="cls-10" d="M142.62,234.21c-3.74,3.07-7.66,12.09-7.89,12.07-.24-.03-4.93-17.08-4.93-17.08,0,0-4.06-.43-7.44,1.87,0,0,1.86,24.42,10.08,24.42s13.74-7.36,13.74-7.36l-3.57-13.93Z"/>
                    <path class="cls-10" d="M142.71,258.01h27.67c-.59-4.95-1.09-9.99-.83-12.79.25-2.72,1.03-11.41,1.03-11.41,0,0-5.22-4.21-14.05-4.21-7.94,0-13.9,4.61-13.9,4.61,0,0,1.56,8.34,1.64,11.01.08,2.82-.66,7.84-1.54,12.79Z"/>
                  </g>
                  <g>
                    <path class="cls-20" d="M160.51,217.75c.78-1.72,1.12-3.61,1.24-5.49.04-.64.05-1.3-.19-1.88-.25-.59-.82-1.08-1.46-1.04.43-.42.29-1.25-.08-1.73-.37-.48-.94-.75-1.5-1-.84-.39-1.69-.77-2.55-1.1-2.79-1.04-5.8-1.41-8.77-1.34-1.23.03-2.59.19-3.41,1.1-.55.61-.75,1.46-.74,2.28.02.82.24,1.61.46,2.4-.52.48-.74,1.21-.74,1.92,0,.71.19,1.39.39,2.07.43,1.52.92,3.13,2.09,4.2.93.85,2.19,1.25,3.42,1.55,1.99.48,4.06.78,6.09.53,2.04-.24,4.89-.62,5.74-2.48Z"/>
                    <path class="cls-18" d="M159.08,215.05c-.33,5.82-.48,16.18-.48,16.18-1.66,2.08-6.5,1-6.26.26.13-.42.15-1.19,0-1.91-.11-.56-.32-1.09-.64-1.4-.14-.13-.4-.21-.75-.27-.06,0-.09-.01-.09-.01-1.62-.25-4.85-.14-5.9-2.31-1.31-2.7-.4-9.5.31-12.73.41-1.85,2.43-4.21,5.75-4.25,4.06-.06,8.38.61,8.05,6.46Z"/>
                    <path class="cls-20" d="M145.86,212.18c.38.33.87.5,1.35.63,2.47.68,5.12.45,7.58-.25-.35.13-.28.7.04.9.32.19.72.13,1.09.06-.26,1.54.24,3.19,1.3,4.33.37.4.86.75,1.4.71.44-.03.81-.32,1.1-.65.87-.98,1.19-2.35,1.12-3.66-.1-1.75-.88-3.43-2.06-4.72-1.18-1.3-2.73-2.22-4.4-2.76-1.78-.57-3.77-.71-5.51-.02-.88.34-1.68.92-2.28,1.64-.3.36-.56.77-.75,1.2-.18.41-.27.84-.45,1.25-.22.48.11,1.03.48,1.35Z"/>
                    <path class="cls-4" d="M156.81,227.17c-1.51.46-3.07.69-4.65.68-.18,0-.18.28,0,.28,1.6,0,3.19-.23,4.72-.69.17-.05.1-.32-.07-.27Z"/>
                    <g>
                      <path class="cls-22" d="M146.57,219.08c0,.34-.44.62-.99.62s-.99-.28-.99-.62.44-.62.99-.62.99.28.99.62Z"/>
                      <path class="cls-22" d="M151.62,219.08c0,.34-.44.62-.99.62s-.99-.28-.99-.62.44-.62.99-.62.99.28.99.62Z"/>
                      <path class="cls-20" d="M147.23,215.2c-.47-.1-.96-.02-1.37.23-.15.1-.01.34.14.24.34-.21.76-.29,1.15-.2.07.02.15-.02.17-.1.02-.07-.02-.16-.1-.17Z"/>
                      <path class="cls-20" d="M150.26,215.41c-.42-.22-.9-.29-1.37-.21-.07.01-.12.1-.1.17.02.08.1.11.17.1.39-.07.8,0,1.15.18.16.08.3-.16.14-.24Z"/>
                      <path class="cls-19" d="M148.16,219.72c-.13-.05-.27-.06-.4,0-.12.05-.2.18-.21.31-.02.13.02.26.1.37.08.11.19.19.3.27.06.04.16.01.19-.05.04-.07.01-.15-.05-.19-.02-.01-.04-.03-.06-.04,0,0-.02-.01-.03-.02.02.02,0,0,0,0-.04-.03-.07-.06-.1-.1,0,0,0,0,0-.01,0,0-.01-.02-.02-.03,0-.01-.01-.02-.02-.03,0,0,0,0,0,0,0,0,0,0,0,0,0-.02-.01-.04-.02-.06,0,0,0,0,0-.01,0-.01,0-.02,0-.03,0,0,0,0,0,0,0,0,0-.02,0-.02,0,0,0-.02,0-.02,0,0,0,0,0,0,0,0,0-.01.01-.02,0,0,0,0,0,0,0,0,0,0,0,0,0,0,.02-.01.02-.01-.02.01,0,0,0,0,0,0,.02,0,.03,0,0,0,0,0,.01,0,.01,0,.02,0,.03,0,0,0,0,0,0,0,0,0,0,0,0,0,0,0,.02,0,.03,0,.02,0,.05.01.07.02.07.03.16-.03.17-.1.02-.08-.02-.15-.1-.17Z"/>
                      <g>
                        <path class="cls-22" d="M150.63,222.55c-.03.11-.06.21-.11.3-.35.65-1.23.89-1.93.89-.33,0-.65-.05-.93-.13-.22-.07-.41-.18-.56-.34-.16-.17-.27-.4-.29-.68-.02-.33.1-.65.37-.82.07-.04.14-.08.23-.1.28-.07.58,0,.87,0,.53,0,1.04-.3,1.57-.27.05,0,.1,0,.15.01.55.09.74.66.63,1.15Z"/>
                        <path class="cls-13" d="M149.82,221.75c-.08.14-.24.2-.39.24-.53.17-1.09.34-1.65.28-.12-.01-.24-.04-.34-.09-.1-.06-.2-.14-.24-.25-.02-.05-.02-.1-.02-.15.07-.04.14-.08.23-.1.28-.07.58,0,.87,0,.53,0,1.04-.3,1.57-.27,0,0,0,0,0,.01.03.12.03.25-.03.35Z"/>
                        <path class="cls-26" d="M150.52,222.85c-.35.65-1.23.89-1.93.89-.33,0-.65-.05-.93-.13-.22-.07-.41-.18-.56-.34.02-.04.05-.08.08-.12.07-.1.15-.18.25-.26.2-.16.44-.27.69-.34.79-.24,1.71-.16,2.4.3Z"/>
                      </g>
                      <path class="cls-24" d="M150.08,217.6c-.1-.15-.19-.31-.3-.46-.11-.14-.26-.24-.45-.23-.17.01-.33.1-.44.23-.12.14-.19.31-.26.48-.03.07.03.15.1.17.08.02.15-.03.17-.1.07-.2.19-.5.44-.5.11,0,.18.07.23.16.09.13.17.26.26.39.04.06.12.09.19.05.06-.04.09-.13.05-.19Z"/>
                      <path class="cls-24" d="M145.79,217.6c.1-.15.19-.31.3-.46.11-.14.26-.24.45-.23.17.01.33.1.44.23.12.14.19.31.26.48.03.07-.03.15-.1.17-.08.02-.15-.03-.17-.1-.07-.2-.19-.5-.44-.5-.11,0-.18.07-.23.16-.09.13-.17.26-.26.39-.04.06-.12.09-.19.05-.06-.04-.09-.13-.05-.19Z"/>
                    </g>
                    <g>
                      <path class="cls-18" d="M158.05,217.69c.56-.48,1.32-.79,2.06-.61.73.18,1.24.78,1.31,1.53.05.5-.08,1.01-.24,1.48-.18.5-.41.99-.73,1.41-.61.8-1.71,1.43-2.7.92-1.32-.69-1.14-2.42-.6-3.56.2-.43.52-.84.9-1.17Z"/>
                      <path class="cls-19" d="M159.95,218.33c-.64-.02-1.16.43-1.51.93-.36.52-.59,1.11-.69,1.73-.02.16.23.22.25.05.07-.49.24-.97.49-1.4,0,0,.01,0,.02,0,.36-.11.75-.1,1.1.03.07.02.14,0,.17-.06.03-.06,0-.15-.06-.17-.34-.12-.69-.15-1.04-.1.31-.42.73-.78,1.27-.76.17,0,.15-.25-.02-.26Z"/>
                    </g>
                  </g>
                  <path class="cls-18" d="M153.39,249.91s-1.37-3.96-2.35-3.8c-.98.16-.56,2.87-.56,2.87,0,0-3.99-.42-4.44.9-.45,1.32.21,5.05,2.49,5.48,2.27.43,4.68-.91,4.68-.91l.19-4.53Z"/>
                  <path class="cls-10" d="M170.57,233.81c4.14,2.82,9.87,18.62,6.9,21.63h-24.09s-1.3-4.86.37-6.86c0,0,14.72-.2,15.05-.58.43-.49,1.77-14.18,1.77-14.18Z"/>
                  <path class="cls-5" d="M169.66,239.4c-.17,1.53-.35,3.05-.52,4.58-.08.74-.15,1.48-.26,2.21-.09.6-.25,1.22-.72,1.63-.44.39-1.05.53-1.62.57-.66.06-1.34.03-2,.02-1.54,0-3.09-.01-4.63-.02-1.74,0-3.48-.01-5.22-.02-.18,0-.18.28,0,.28l9.61.04c.7,0,1.41.03,2.11-.01.57-.04,1.17-.14,1.67-.45,1.15-.73,1.12-2.3,1.26-3.5.2-1.78.4-3.56.61-5.33.02-.18-.26-.18-.28,0Z"/>
                </g>
                <rect class="cls-15" x="83.88" y="255.44" width="112.89" height="10.89"/>
                <g>
                  <rect class="cls-16" x="104.34" y="253.91" width="31.97" height="1.53"/>
                  <path class="cls-23" d="M119.43,255.44h-31.38c-.14,0-.26-.11-.28-.25l-2.45-22.88c-.02-.16.11-.31.28-.31h31.38c.14,0,.26.11.28.25l2.45,22.88c.02.16-.11.31-.28.31Z"/>
                  <path class="cls-9" d="M105.4,243.64c0,2.01-1.63,3.64-3.64,3.64s-3.64-1.63-3.64-3.64,1.63-3.64,3.64-3.64,3.64,1.63,3.64,3.64Z"/>
                </g>
                <g>
                  <path class="cls-11" d="M113.51,248.95s2.54-6.65,2.02-12.13c0,0-5.45,3.66-5.91,12.13h3.88Z"/>
                  <path class="cls-25" d="M108.5,248.95c-1.39-1.57-2.32-3.51-2.89-5.52-.58-2.01-.82-4.11-.94-6.2,2.1,1.23,3.86,2.84,5.19,4.88,1.34,2.04,2.2,4.38,2.5,6.8-.05,0-.11-.01-.16-.01l-3.7.06Z"/>
                  <path class="cls-25" d="M110.94,248.9l4.31.06c1.09-1.14,1.85-2.57,2.35-4.07.5-1.5.74-3.07.89-4.65-3.65,1.59-6.54,4.81-7.56,8.66Z"/>
                  <path class="cls-10" d="M111.82,248.6h-4.33c-.15,0-.27.13-.24.28l1.03,6.41c.02.12.12.21.24.21h6.61c.12,0,.22-.09.24-.21l1.03-6.41c.02-.15-.09-.28-.24-.28h-4.33Z"/>
                </g>
                <g>
                  <rect class="cls-16" x="184.07" y="249.73" width="11.09" height="5.76"/>
                  <rect class="cls-23" x="176.8" y="249.73" width="7.28" height="5.76"/>
                  <path class="cls-9" d="M181.77,252.61c0,.82-.6,1.48-1.34,1.48s-1.34-.66-1.34-1.48.6-1.48,1.34-1.48,1.34.66,1.34,1.48Z"/>
                </g>
                <g>
                  <path class="cls-21" d="M164.48,246.83l8.64,5.14c.36.21.82.1,1.04-.26l1.38-2.33c.21-.36.1-.82-.26-1.04l-8.64-5.14-2.16,3.63Z"/>
                  <path class="cls-2" d="M162.43,242.02l-1,1.69c-.32.54-.14,1.23.39,1.55l2.66,1.58,2.16-3.63-2.66-1.58c-.54-.32-1.23-.14-1.55.39Z"/>
                  <path class="cls-2" d="M170.66,247.77c0,.71-.58,1.29-1.29,1.29s-1.29-.58-1.29-1.29.58-1.29,1.29-1.29,1.29.58,1.29,1.29Z"/>
                  <path class="cls-21" d="M169.37,254.63h0c-.29,0-.52-.23-.52-.52v-6.32c0-.29.23-.52.52-.52h0c.29,0,.52.23.52.52v6.32c0,.29-.23.52-.52.52Z"/>
                  <path class="cls-2" d="M172.5,254.2h-6.25c-.34,0-.62.28-.62.62s.28.62.62.62h6.25c.34,0,.62-.28.62-.62s-.28-.62-.62-.62Z"/>
                </g>
              </g>
            </g>
            <path class="cls-21" d="M186.45,269.62h-96.25c-1.97,0-3.57-1.6-3.57-3.57v-67.16c0-1.97,1.6-3.57,3.57-3.57h96.25c1.97,0,3.57,1.6,3.57,3.57v67.16c0,1.97-1.6,3.57-3.57,3.57ZM90.19,196.08c-1.55,0-2.8,1.26-2.8,2.81v67.16c0,1.55,1.26,2.81,2.8,2.81h96.25c1.55,0,2.8-1.26,2.8-2.81v-67.16c0-1.55-1.26-2.81-2.8-2.81h-96.25Z"/>
            <circle class="cls-21" cx="203.18" cy="205.42" r="9.72"/>
            <path class="cls-3" d="M209.02,205.42c0,3.23-2.62,5.84-5.84,5.84s-5.84-2.62-5.84-5.84,2.62-5.84,5.84-5.84,5.84,2.62,5.84,5.84Z"/>
            <g>
              <path class="cls-21" d="M210.23,230.38v-6.33c-7.42.26-13.38,6.21-13.63,13.63h6.33c.25-3.92,3.38-7.05,7.3-7.3Z"/>
              <path class="cls-21" d="M218.52,237.68h6.33c-.26-7.42-6.21-13.38-13.63-13.63v6.33c3.92.25,7.05,3.38,7.3,7.3Z"/>
              <path class="cls-21" d="M211.22,245.97v6.33c7.42-.26,13.38-6.21,13.63-13.63h-6.33c-.25,3.92-3.38,7.05-7.3,7.3Z"/>
              <path class="cls-21" d="M202.93,238.67h-6.33c.26,7.42,6.21,13.38,13.63,13.63v-6.33c-3.92-.25-7.05-3.38-7.3-7.3Z"/>
              <path class="cls-21" d="M214.31,238.18c0-1.98-1.61-3.59-3.59-3.59s-3.59,1.61-3.59,3.59,1.61,3.59,3.59,3.59,3.59-1.61,3.59-3.59Z"/>
            </g>
            <circle class="cls-21" cx="197.38" cy="265.3" r="3.41"/>
            <circle class="cls-21" cx="206.22" cy="265.3" r="3.41"/>
            <g>
              <path class="cls-21" d="M174.94,190.21c0,1.7-1.38,3.07-3.07,3.07s-3.07-1.38-3.07-3.07,1.38-3.07,3.07-3.07,3.07,1.38,3.07,3.07Z"/>
              <path class="cls-7" d="M173.46,190.21c0,.88-.71,1.59-1.59,1.59s-1.59-.71-1.59-1.59.71-1.59,1.59-1.59,1.59.71,1.59,1.59Z"/>
            </g>
          </g>
          <g>
            <path class="cls-20" d="M190.99,278.49v2.06h-6.61v1.64h6.61v2.06c0,.69.56,1.24,1.24,1.24h0c.69,0,1.24-.56,1.24-1.24v-5.76c0-.69-.56-1.24-1.24-1.24h0c-.69,0-1.24.56-1.24,1.24Z"/>
            <rect class="cls-20" x="151.95" y="287.98" width="7.59" height="16.69"/>
            <rect class="cls-20" x="138" y="285.23" width="35.48" height="3.14" rx=".93" ry=".93"/>
            <rect class="cls-21" x="129" y="298.26" width="53.48" height="21.73" rx="2.23" ry="2.23"/>
            <rect class="cls-21" x="126.54" y="276.66" width="58.4" height="9.43" rx="1.1" ry="1.1"/>
          </g>
          <path class="cls-21" d="M65.84,211.69c-.71,0-1.29.58-1.29,1.29v1.27h-.82c-.25,0-.46.2-.46.46v2.63c0,.25.2.46.46.46h.82v1.27c0,.71.58,1.29,1.29,1.29h13.9v-8.66h-13.9Z"/>
          <path class="cls-21" d="M253.28,424.36c-7.3-15.83-26.28-42.48-39.79-52.81-14.12-10.79-30.37-18.59-47.29-23.91-20.52-6.45-41.92-9.53-63.25-11.79-10.82-1.15-21.66-2.08-32.49-3.15-10.27-1.01-20.6-2.21-30.54-5.11-9.13-2.66-17.82-6.84-24.85-13.33-6.31-5.82-11.27-13.35-12.96-21.86-2.67-13.46,3.91-25.91,13.7-34.69-.11,4.32.5,8.66,1.96,12.8,2.88,8.21,8.73,15.54,16.64,19.38,7.46,3.63,16.5,3.88,24.18.77,7.63-3.08,13.43-9.36,15.36-17.43,1.84-7.71.27-16.38-5.06-22.4-5.75-6.49-14.74-8.62-23.11-8.01-8.82.65-17.36,3.95-24.69,8.83-1.19.79-2.34,1.64-3.48,2.53.97-7.73,4.33-15.14,9.26-21.15,6.15-7.49,14.63-12.74,23.81-15.67,4.46-1.42,9.08-2.31,13.74-2.71.98-.08.99-1.63,0-1.55-9.84.84-19.56,3.79-27.86,9.23-7.94,5.2-14.26,12.63-17.84,21.44-1.52,3.76-2.45,7.73-2.78,11.73-5.1,4.28-9.46,9.5-12.35,15.49-3.72,7.73-4.67,16.49-2.25,24.77,2.49,8.52,8.07,15.93,14.86,21.53,16.11,13.28,37.88,15.38,57.88,17.3,22.58,2.17,45.26,3.94,67.54,8.41,19.84,3.98,39.28,10.17,56.84,20.37,15.71,9.13,25.12,17.67,47.45,50.65,2.21,3.26,4.02,6.76,5.68,10.33h1.7ZM17.39,256.35c2.63-2.18,5.45-4.11,8.36-5.72,7.52-4.18,16.22-6.78,24.88-6.29,8.35.47,16.4,4.45,20.18,12.2,3.47,7.11,3.01,16.07-1,22.86-4.22,7.17-12.31,11.26-20.46,11.82-8.56.58-16.75-2.68-22.67-8.88-6-6.29-9.41-14.95-9.41-23.63,0-.79.06-1.57.11-2.35Z"/>
          <polygon class="cls-20" points="131.23 319.99 96.39 424.36 111.39 424.36 155.74 319.99 131.23 319.99"/>
          <polygon class="cls-20" points="180.25 319.99 215.09 424.36 200.09 424.36 155.74 319.99 180.25 319.99"/>
        </g>
      </g>
    </g>
  </g>
</svg>