<?xml version="1.0" encoding="UTF-8"?>
<svg id="Layer_2" data-name="Layer 2" xmlns="http://www.w3.org/2000/svg" viewBox="0 0 584.51 385.43">
  <defs>
    <style>
      .cls-1 {
        stroke: #ea8f86;
      }

      .cls-1, .cls-2, .cls-3, .cls-4, .cls-5, .cls-6, .cls-7, .cls-8, .cls-9, .cls-10, .cls-11, .cls-12, .cls-13, .cls-14 {
        stroke-linejoin: round;
      }

      .cls-1, .cls-2, .cls-3, .cls-4, .cls-6, .cls-7, .cls-8, .cls-9, .cls-10, .cls-11, .cls-12, .cls-13, .cls-14 {
        fill: none;
      }

      .cls-1, .cls-2, .cls-3, .cls-6, .cls-8, .cls-9, .cls-10, .cls-11, .cls-13, .cls-14 {
        stroke-width: .75px;
      }

      .cls-2 {
        stroke: #a84545;
      }

      .cls-15 {
        fill: #262a82;
      }

      .cls-16 {
        fill: #4063d9;
      }

      .cls-3 {
        stroke: #af3519;
      }

      .cls-17 {
        fill: #edf3f9;
      }

      .cls-4 {
        stroke-dasharray: 3.5 3.5;
      }

      .cls-4, .cls-5, .cls-7 {
        stroke: #99bfe3;
      }

      .cls-5, .cls-18 {
        fill: #fff;
      }

      .cls-6 {
        stroke: #2f5fa5;
      }

      .cls-19 {
        fill: #e56767;
      }

      .cls-8 {
        stroke: #77331e;
      }

      .cls-9 {
        stroke: #161515;
      }

      .cls-20 {
        fill: #ffb9a9;
      }

      .cls-10 {
        stroke: #4da3f7;
      }

      .cls-11 {
        stroke: #262a82;
      }

      .cls-21 {
        fill: #611223;
      }

      .cls-22 {
        fill: #404058;
      }

      .cls-23 {
        fill: #3f111d;
      }

      .cls-24 {
        fill: #c96947;
      }

      .cls-25 {
        fill: #4da3f7;
      }

      .cls-26 {
        fill: #fc9854;
      }

      .cls-27 {
        fill: #0f43aa;
      }

      .cls-28 {
        fill: #2d2d2d;
      }

      .cls-29 {
        fill: #031628;
      }

      .cls-30 {
        fill: #e0d5d1;
      }

      .cls-12 {
        stroke: #2d2d2d;
      }

      .cls-31 {
        fill: #1e2e59;
      }

      .cls-32 {
        fill: #badff4;
      }

      .cls-13 {
        stroke: #4063d9;
      }

      .cls-14 {
        stroke: #a89892;
      }

      .cls-33 {
        fill: #a35138;
      }
    </style>
  </defs>
  <g id="OBJECTS">
    <g>
      <g>
        <path class="cls-17" d="M376.3,383.93s19.53-64.36,106.35-23.81c34.73,16.22,46.13,4.1,57.81,2.61,18.24-2.33,25.82,10.05,31.06,21.2h-195.23Z"/>
        <path class="cls-17" d="M223.04,383.93h52.53s-29.76-56.83-71.28-57.38c-42.28-.56-54.51,27.95-73.54,30.33-24.85,3.1-38.22-13.88-56.24-12.49-36.23,2.81-53.5,39.54-53.5,39.54h202.04Z"/>
        <path class="cls-4" d="M170.16,311.81H31.98c-14.27,0-25.85-11.57-25.85-25.85h0c0-14.27,11.57-25.85,25.85-25.85h495.26c24.93,0,45.14-20.21,45.14-45.14h0c0-24.93-20.21-45.14-45.14-45.14H98.23c-24.77,0-44.85-20.08-44.85-44.85h0c0-24.77,20.08-44.85,44.85-44.85h352.01c19.41,0-19.4-1.84-19.4-1.84"/>
        <circle class="cls-17" cx="69.72" cy="202.48" r="12.36"/>
        <circle class="cls-17" cx="513.39" cy="236.37" r="7.32"/>
        <circle class="cls-7" cx="43.38" cy="175.61" r="6.33"/>
        <circle class="cls-17" cx="497.67" cy="60.56" r="3.38"/>
        <path class="cls-17" d="M169.51,3.38c0,1.86-1.51,3.38-3.38,3.38s-3.38-1.51-3.38-3.38,1.51-3.38,3.38-3.38,3.38,1.51,3.38,3.38Z"/>
        <path class="cls-7" d="M544.62,197.79c0,1.86-1.51,3.38-3.38,3.38s-3.38-1.51-3.38-3.38,1.51-3.38,3.38-3.38,3.38,1.51,3.38,3.38Z"/>
        <path class="cls-7" d="M68.41,290.74c0,1.86-1.51,3.38-3.38,3.38s-3.38-1.51-3.38-3.38,1.51-3.38,3.38-3.38,3.38,1.51,3.38,3.38Z"/>
        <path class="cls-7" d="M515.17,305.42c0,1.86-1.51,3.38-3.38,3.38s-3.38-1.51-3.38-3.38,1.51-3.38,3.38-3.38,3.38,1.51,3.38,3.38Z"/>
        <path class="cls-7" d="M458.41,32.74c0,3.1-2.51,5.62-5.62,5.62s-5.62-2.51-5.62-5.62,2.51-5.62,5.62-5.62,5.62,2.51,5.62,5.62Z"/>
        <line class="cls-7" x1="36.88" y1="269.42" x2="54.15" y2="269.42"/>
        <line class="cls-7" x1="551.76" y1="278.04" x2="569.03" y2="278.04"/>
        <line class="cls-7" x1="374.46" y1="66.73" x2="400.9" y2="66.73"/>
        <line class="cls-7" x1="61.09" y1="250.22" x2="69.72" y2="250.22"/>
        <line class="cls-7" x1="396.82" y1="57.6" x2="405.45" y2="57.6"/>
        <line class="cls-7" x1="134.6" y1="24.1" x2="143.23" y2="24.1"/>
        <line class="cls-7" x1="149.78" y1="32.74" x2="158.42" y2="32.74"/>
        <g>
          <path class="cls-5" d="M84.68,384.43c-11.91-23.11-29.76-31.37-37.52-42.89-2.33-3.47-4.37-7.22-4.52-11.09s1.96-7.89,6.09-9.32c3.55-1.23,7.79-.38,11.48.98,11.48,4.21,20.23,13.03,25.46,22.65,5.23,9.62,10.43,24.71,9.57,39.68"/>
          <path class="cls-7" d="M45.77,322.87s36.91,18.91,45.19,61.56"/>
          <path class="cls-5" d="M94.03,384.43c-.05-22.29-5.19-39.09-11.61-58.46-3.2-9.64-7.24-19.41-9.6-29.19-1.71-7.11-3.11-16.11,1-21.86,4.68-6.55,13.7-3.71,20.28.67,7.86,5.23,13.43,13.37,16.99,21.76,6.29,14.82,7.33,31.16,7.51,46.28.17,13.87-2.59,29.19-5.84,40.8"/>
          <path class="cls-7" d="M80.99,270.97s27.69,49.77,22.69,113.46"/>
          <path class="cls-5" d="M174.27,384.43c-1.9-16.22-1.73-33.97,3.71-49.36,5.44-15.39,16.75-29.27,32.06-34.94,2.65-.98,5.79-1.66,8.16-.13,2.18,1.41,2.95,4.2,3.29,6.77,1.66,12.77-3.3,25.47-9.49,36.76-6.19,11.28-13.76,28.77-18.08,40.9"/>
          <path class="cls-5" d="M373.61,384.43c-1.45-23.45,1.2-52.22,8.83-70.67,5.92-14.33,15.84-27.78,29.29-36.27,9.69-6.11,28.23-15.92,38.06-5.2,14.44,15.76-17.17,40.97-25.57,51.85-13.95,18.08-25.47,37.66-30.09,60.28"/>
          <path class="cls-5" d="M342.5,384.43c-1.64-19.57-13.8-37.83-26.02-53.21-12.22-15.38-25.36-31.14-29.59-50.32-1.3-5.9-1.6-12.49,1.65-17.58,4.97-7.79,16.16-8.9,25.03-6.3,12.27,3.59,22.5,12.52,29.57,23.17s11.22,22.97,14.23,35.39c5.33,22.02,7.28,46.25,5.75,68.85"/>
          <path class="cls-5" d="M496.59,384.43c.97-28.48,6.3-51.87,27.27-72.84,6.58-6.58,18.84-15.12,29.91-10.18,5.48,2.45,5.58,10.82,2.98,15.87-6.99,13.63-37.21,29.43-48.34,67.14"/>
          <path class="cls-5" d="M477.82,384.43c-9.53-68.12,7.89-95.58,17.89-105.6,6.63-6.64,19.18-16.26,30.4-9.2,13.37,8.42,5.9,27.47-2.25,41.96-9.35,16.64-21.94,42.11-23.98,72.84"/>
          <path class="cls-5" d="M515.49,384.43c2.11-11.23,12.75-35.43,28.66-42.99,4.09-1.94,9.26-2.4,13.66-1.15,4.01,1.14,6.9,4.83,7.45,8.9.66,4.88-1.97,9.03-5.68,11.97-8.96,7.11-19.64,14.04-27.67,23.27"/>
          <path class="cls-7" d="M218.2,300s-28.43,30.05-33.34,83.93"/>
          <path class="cls-7" d="M294.01,258.27s47.76,36.44,61.48,126.16"/>
          <path class="cls-7" d="M380.4,384.93s9.13-74.69,69.38-112.63"/>
          <path class="cls-7" d="M526.1,269.62s-39.27,33.69-38.72,115.31"/>
          <path class="cls-7" d="M503.08,384.43c4.99-28.73,20.16-56.33,50.68-83.02"/>
          <path class="cls-7" d="M522.86,384.43s11.39-27.68,38.53-42.45"/>
        </g>
        <rect class="cls-7" x=".5" y="383.93" width="583.51" height="1"/>
      </g>
      <g>
        <g>
          <g>
            <polygon class="cls-28" points="483.8 384.93 454.61 384.93 454.8 381.36 483.99 381.36 483.8 384.93"/>
            <polyline class="cls-20" points="480.77 345.75 481.48 370.26 480.09 381.36 460.03 369.25 458.77 342.92"/>
            <path class="cls-19" d="M460.03,369.25s-2.92,7.04-4.2,9c-1.28,1.96-1.07,3.84-1.07,3.84h29.18c.51-2.97-2.41-12.84-2.41-12.84,0,0-16.03,1.04-21.5,0Z"/>
            <line class="cls-12" x1="467.2" y1="371.63" x2="474.15" y2="371.63"/>
            <line class="cls-12" x1="466.91" y1="373.99" x2="474.35" y2="373.99"/>
            <line class="cls-12" x1="466.65" y1="376.35" x2="474.6" y2="376.35"/>
          </g>
          <path class="cls-29" d="M422.87,82.68c.68,3.95,1.29,7.84,4.99,10.31,1.96,1.31,4.32,1.93,6.67,2.13,1.94.17,3.92.08,5.79-.46,1.84-.53,3.54-1.49,5.21-2.43,1.19-.67,2.48-1.46,2.92-2.76.21-.63.19-1.32.34-1.97.25-1.08.95-1.99,1.61-2.88,1.33-1.76,2.65-3.71,2.72-5.92.03-.9-.16-1.8-.44-2.66-.88-2.61-2.71-4.83-4.84-6.58-2.13-1.75-4.58-3.07-7.02-4.36-1.13-.59-2.28-1.18-3.53-1.4-1.22-.22-2.47-.07-3.7.13-3.17.52-6.37,1.43-8.95,3.35-1.41,1.05-2.62,2.43-3.19,4.1-.77,2.28-.24,4.79.47,7.09.43,1.4.69,2.86.94,4.31Z"/>
          <g>
            <path class="cls-28" d="M434.55,384.19v-2.1h-38.86c-1.33,0-2.56-.7-3.24-1.84l-.23-.04v3.38c0,.13.05.25.13.34l.08.09c.55.59,1.32.92,2.12.92h39.26c.41,0,.74-.33.74-.74Z"/>
            <path class="cls-20" d="M435.8,341.6l-2.5,28.56-.65,11.19h-37.81c-.88,0-1.58-.71-1.58-1.58h0c0-.66.4-1.24,1.02-1.48l17.35-8.13-1.59-31.38"/>
            <path class="cls-19" d="M411.67,368.28l-18.33,9.97c-.68.3-1.12,1.03-1.12,1.85h0c0,1.1,1.13,1.99,2.1,1.99h40.23l-1.21-12.19s-14.3,2.53-21.67-1.62Z"/>
            <line class="cls-12" x1="401.14" y1="374.01" x2="403.26" y2="377.59"/>
            <line class="cls-12" x1="403.26" y1="372.86" x2="405.52" y2="376.62"/>
            <line class="cls-12" x1="405.52" y1="371.63" x2="407.79" y2="375.32"/>
          </g>
          <path class="cls-20" d="M382.56,121.97l16.4,16.21,45.31,33.24-8.19,10.37s-28.82-11.7-50.36-25.13c-7.8-4.86-23.39-21.65-23.39-21.65"/>
          <path class="cls-20" d="M439.71,169.35c2.65,1.28,7.67,3.37,10.33,4.65,1.56.76,4.24,2.25,4.11,3.01-.34,1.96-4.42-1.29-4.59-.3-.1.6,3.32,2.13,5.07,2.91,1.56.7,3.59,1.87,3.47,2.94-.16,1.38-8.91-2.64-8.91-2.64,0,0,9.04,4.61,8.85,5.76-.29,1.66-9.39-2.96-9.39-2.96,0,0,7.65,4.07,7.44,5.29-.21,1.23-5.78-2.28-8.22-3.17,1.61,1.05,6.27,4.2,5.64,4.85-.56.58-3.89-1.16-4.74-1.5-8.09-3.27-13.49-6.76-13.49-6.76"/>
          <path class="cls-1" d="M439.53,173.79s3.37,3.17,6.86,2.56"/>
          <g>
            <path class="cls-20" d="M395.32,125.99s-16.24,20.12-21.66,25.86c-4.39,4.65-29.62,9.96-29.62,9.96l-.86,12.78c6.74-.03,37.02-.41,50.13-13.52,10.8-10.8,24.02-27.42,24.02-27.42"/>
            <path class="cls-20" d="M350.64,161.08c-3.26.11-7.73.48-10.99.53-1.58.02-4.85.04-5.18.7-.64,1.26,4.07,1.06,3.75,1.97-.2.55-3.71.4-5.45.2-1.55-.17-3.5-.39-3.96.53-.41.8,8.71,1.96,8.71,1.96,0,0-9.72-.39-10.1.66-.54,1.51,10,1.89,10,1.89,0,0-9.14-.13-9.54.99s6.78,1.23,9.61,1.52c-1.75.09-8.14-.02-8.43.8-.29.82,3.01,1.47,3.84,1.54,5.03.39,15.11.13,15.11.13"/>
            <path class="cls-1" d="M339.49,171.57s3.58-4.57,8.17-4.35"/>
            <line class="cls-1" x1="376.26" y1="148.95" x2="390.65" y2="131.73"/>
            <line class="cls-1" x1="393.5" y1="161.08" x2="408.3" y2="145.37"/>
          </g>
          <g>
            <path class="cls-31" d="M406.81,190.32c-1.21,1.64.12,174.22.12,174.22h30l9.79-129.95s3.15-28.72-4.57-53.79"/>
            <path class="cls-31" d="M476.49,190.32c2.59,3.52,10.22,174.22,10.22,174.22h-30l-16.43-129.95s-3.15-28.72,4.57-53.79"/>
            <path class="cls-6" d="M444.26,266.05s-4.73-50.79-4.73-65.21"/>
            <path class="cls-6" d="M433.79,200.84s.8,19.6,1.83,24.31c.46,2.07,5,1.64,5,1.64"/>
            <path class="cls-6" d="M483.5,364.55s-7.9-150.35-12.75-165.36"/>
            <path class="cls-6" d="M458.19,203.39s2.87,7.62,5.07,9.83c2.2,2.2,9.57,1.52,9.57,1.52"/>
            <line class="cls-6" x1="434.55" y1="364.55" x2="443.09" y2="253.05"/>
            <path class="cls-6" d="M406.37,212.5s6.17.55,7.8-.81c2.23-1.87,6.2-6.75,6.2-6.75"/>
          </g>
          <path class="cls-19" d="M435.63,102.33s-9.42-5.05-24.3,3.56c-7.46,4.31-17.24,15.3-24.3,27.56,2.87,4.81,20.86,18.65,27.65,17.97,5.38-6.88,11.2-27.71,11.2-27.71"/>
          <g>
            <path class="cls-19" d="M407.89,120.3l-3.64,84.64,77.69-1.55c-.65-18.58-7.01-64.76-11.19-85.58-14.97-18.92-33.37-19.08-33.37-19.08l-14.34,8.83-15.16,12.73Z"/>
            <path class="cls-2" d="M406.91,147.56s.98-17.98.98-27.26"/>
          </g>
          <g>
            <path class="cls-20" d="M475.75,107.34s18.91,12.62,30.89,8.24c8.81-3.22,26.73-30.17,26.73-30.17l13.93,5.93c-3.64,7.09-21.18,47.45-43.03,48.98-18.25,1.27-39.44-9.4-39.44-9.4"/>
            <path class="cls-20" d="M529.07,91.98c1.85-3.37,4.64-7.89,6.44-11.3.87-1.66,2.63-5.09,3.51-5.09,1.67,0-1.06,4.86.07,5.01.69.09,2.4-3.7,3.13-5.64.65-1.73,1.46-3.89,2.68-3.89,1.06,0-2.59,10.23-2.59,10.23,0,0,4.79-10.45,6.1-10.29,1.88.24-3.36,11.55-3.36,11.55,0,0,4.75-9.7,6.15-9.52,1.39.18-2.33,7.8-3.54,10.94,1.03-1.79,4.33-8.58,5.35-8.45,1.02.13-.06,3.96-.43,4.87-2.28,5.51-7.94,15.99-7.94,15.99"/>
            <path class="cls-1" d="M546.07,85.84s-6.73,1.33-8.95,6.29"/>
          </g>
          <path class="cls-19" d="M441.7,100.42s16.94-2.48,34.13,5.87c12.95,6.3,15.09,7.77,15.09,7.77l-10.01,24.57-28.03-12.26"/>
          <g>
            <path class="cls-20" d="M426.8,79.89c-.69-.69-1.88-.62-2.59.01-.79.71-.94,2.15-.74,3.14.32,1.6,1.77,3.33,3.57,2.79.67-.2,1.22-.73,1.45-1.39"/>
            <path class="cls-20" d="M446.98,80.38c.07-.07.14-.14.21-.2.63-.51,1.64-.28,2.17.33.52.62.63,1.5.53,2.3-.11.88-.47,1.76-1.12,2.37-.65.61-1.61.92-2.46.66-.67-.2-1.22-.73-1.45-1.39"/>
            <path class="cls-20" d="M429.69,90.56l9.17-12.47,4.84,11.31.81,11.85c-3.16,6.78-13.08,5.25-14.7,1.26l-.12-11.96"/>
            <path class="cls-20" d="M426.93,71.93c-1.79,4.6-1.12,21.01,2.49,23.13,3.62,2.12,11.56,1.61,14.13-1.02,2.23-2.28,5.73-16.05,2.59-19.71-3.14-3.66-16.71-8.85-19.21-2.4Z"/>
            <path class="cls-29" d="M445.41,63.5c-1.01-2.18-3.18-3.74-5.55-4.16-2.39-.43-4.92.26-6.87,1.69-1.16.85-2.16,1.96-3.5,2.49-1.53.61-3.25.36-4.91.34-1.65-.02-3.51.32-4.45,1.68-.64.92-.71,2.12-.65,3.25.09,1.67.43,3.36,1.3,4.78.87,1.42,2.34,2.55,4,2.71,2.14.21,4.08-1.13,6.04-2.03,1.9-.88,3.95-1.43,5.85-2.32,1.83-.86,3.56-.9,5.35.18,1.62.98,2.82,2.49,4.12,3.86.85.89,1.82,1.75,3.01,2.04,1.19.29,2.65-.18,3.1-1.33.3-.77.1-1.64-.11-2.44-.3-1.14-.59-2.27-.89-3.41-.28-1.09-.58-2.2-1.18-3.16-.48-.77-1.13-1.33-1.89-1.83-.66-.43-1.59-.58-2.13-1.14-.3-.31-.45-.73-.63-1.13,0-.02-.02-.04-.03-.06Z"/>
            <path class="cls-1" d="M431.74,96.22s7.38,1.06,10.72-1.52"/>
            <path class="cls-1" d="M435.15,80.95s-1.98,4.8-1.2,5.98c.77,1.18,2.84.48,2.84.48"/>
            <path class="cls-23" d="M439.49,80.9c-.13.29-.14.7-.18.95-.07.43.38.71.79.62.76-.17.78-1.94-.15-1.91-.24,0-.38.15-.47.35Z"/>
            <path class="cls-23" d="M429.09,80.47c-.13.29-.14.7-.18.95-.07.43.38.71.79.62.76-.17.78-1.94-.15-1.91-.24,0-.38.15-.47.35Z"/>
            <path class="cls-18" d="M431.98,89.53l6.52-.17s.63,3.81-3.28,3.72c-3.54-.08-3.24-3.55-3.24-3.55Z"/>
            <path class="cls-23" d="M438.68,78.53c1.21.12,2.5.51,3.53,1.07.13-.05.49-.61.34-.96-.12-.28-1.97-1.11-3.7-1.22,0,0-.4.94-.17,1.11Z"/>
            <path class="cls-23" d="M430.84,78.28c-.88-.07-1.79.12-2.51.5-.1-.07-.27-.57-.17-.89.07-.25,1.38-.77,2.63-.62,0,0,.21.87.06,1.01Z"/>
          </g>
          <line class="cls-2" x1="473.97" y1="136.08" x2="458.19" y2="128.69"/>
        </g>
        <path class="cls-24" d="M282.33,119.52s11.23,11.14,15.55,10.68c7.18-.77,47.52-25.25,47.52-25.25l4.53,16.55s-30.23,32.73-48.22,34.78c-15.55,1.77-36.5-16.86-36.5-16.86"/>
        <g>
          <path class="cls-21" d="M353.17,70.6c1.71.74,2.84,2.47,3.28,4.28.45,1.81.32,3.71.14,5.56-.05.54-.11,1.08-.01,1.61.45,2.47,3.75,3.4,4.64,5.74.26.68.28,1.41.31,2.13.05,1.34.14,4.01.14,4.01,0,0-11.8.95-18.77.76"/>
          <g>
            <polygon class="cls-28" points="302.05 384.93 331.24 384.93 331.05 381.36 301.86 381.36 302.05 384.93"/>
            <polyline class="cls-20" points="305.08 345.75 304.38 370.26 305.76 381.36 324.82 369.25 327.08 342.92"/>
            <path class="cls-16" d="M324.82,369.25s3.92,7.04,5.2,9c1.28,1.96,1.07,3.84,1.07,3.84h-29.18c-.51-2.97,2.41-12.84,2.41-12.84,0,0,15.03,1.04,20.5,0Z"/>
            <line class="cls-12" x1="318.65" y1="371.63" x2="311.7" y2="371.63"/>
            <line class="cls-12" x1="318.94" y1="373.99" x2="311.51" y2="373.99"/>
            <line class="cls-12" x1="319.2" y1="376.35" x2="311.25" y2="376.35"/>
          </g>
          <g>
            <path class="cls-28" d="M345.97,384.19l-.11-2.1h38.86c1.33,0,2.52-.7,3.14-1.84l.23-.04.18,3.38c0,.13-.03.25-.12.34l-.08.09c-.52.59-1.27.92-2.07.92h-39.26c-.41,0-.76-.33-.78-.74Z"/>
            <path class="cls-20" d="M347.26,345.75l.08,24.33.37,11.28h37.81c.88,0,1.55-.71,1.5-1.58h0c-.03-.66-.47-1.24-1.09-1.48l-17.78-8.13,4.03-27.24"/>
            <path class="cls-16" d="M368.34,368.59l18.52,9.66c.69.3,1.18,1.03,1.22,1.85h0c.06,1.1-1.03,1.99-1.99,1.99h-40.23l1.22-12.28s14.1,2.93,21.26-1.22Z"/>
            <line class="cls-12" x1="378.7" y1="373.99" x2="376.3" y2="378.52"/>
            <line class="cls-12" x1="375.66" y1="372.41" x2="373.27" y2="376.94"/>
            <line class="cls-12" x1="372.63" y1="370.84" x2="370.23" y2="375.36"/>
          </g>
          <path class="cls-16" d="M343.9,99.57s17.88,2.32,25.76,8.57c7.92,6.29,19.71,18.98,19.71,18.98l-16.22,20.44-14.65-15.83"/>
          <g>
            <path class="cls-27" d="M360.11,162.8l7.46,6.85c1.48,4.84,12.36,16.48,14.77,53.31,2.66,40.73-2.5,126.07-2.5,126.07h-35.01l-1.85-144.91-1.38-52.72"/>
            <path class="cls-27" d="M318.32,166.63c-2.51,6.73-11.7,20.93-15.67,40.4-6.14,30.15-.82,142-.82,142h29.7l17.35-145.52s1.57-12.9.82-34.4"/>
            <g>
              <path class="cls-13" d="M344.32,250.22c.71-14.44,4.74-61.21,5.38-81.1"/>
              <path class="cls-13" d="M327.45,166.63s-12.95,15.71-16.66,38.5c-3.11,19.17-2.34,143.9-2.34,143.9"/>
              <path class="cls-13" d="M338.64,169.12s-3.08,11.51-20.61,13.07"/>
              <path class="cls-13" d="M373.25,181.08s-12.57-6.78-15.07-11.96"/>
              <path class="cls-13" d="M354.77,170.9s-.59,18.37-2.11,19.94c-1.52,1.58-4.76,1.96-4.76,1.96"/>
              <path class="cls-13" d="M351.09,348.87s-3.06-108.69-4.66-129.58"/>
            </g>
          </g>
          <g>
            <g>
              <path class="cls-16" d="M310.96,116.19c3.4-5.34,21.67-16.07,21.67-16.07,6.17-.77,13.26-.35,13.26-.35,0,0,10.33,8.37,17.43,18.04,5.83,5.63,8.18,9.94,8.27,15.76.06,3.98-1.79,7.37-2.73,13.42-1.03,6.55-1.28,22.66-1.28,22.66-11.15,4.11-33.79,3.66-50.31-.53-2.11-15.23-9.7-47.6-6.3-52.93Z"/>
              <path class="cls-11" d="M363.32,117.81c5.83,5.63,8.18,9.94,8.27,15.76.06,3.98-1.23,6.08-2.05,9.96"/>
            </g>
            <path class="cls-11" d="M345.06,132.65l-2.56-28.31,2.56,28.31Z"/>
            <path class="cls-15" d="M340.26,112.68c.01.29.26.53.55.53s.53-.24.52-.53c-.01-.29-.26-.53-.55-.53s-.53.24-.51.53Z"/>
            <path class="cls-15" d="M341.12,121.94c.01.29.26.53.55.53s.53-.24.52-.53c-.01-.29-.26-.53-.55-.53s-.53.24-.51.53Z"/>
            <path class="cls-15" d="M341.97,131.2c.01.29.26.53.55.53s.53-.24.51-.53c-.01-.29-.26-.53-.55-.53s-.53.24-.51.53Z"/>
          </g>
          <g>
            <path class="cls-20" d="M301.13,120.39s-21.14,18.54-25.43,21.77c-4.18,3.14-40.51,21.44-40.51,21.44l3.18,10.52s40.92-9.5,53.35-16.82c10.07-5.93,29.35-22.91,29.35-22.91"/>
            <path class="cls-16" d="M332.05,100.35s-9.44,1.27-19.79,7.43c-7.5,4.47-20.55,19.71-20.55,19.71l19.24,19.22,19.52-17.43"/>
            <line class="cls-11" x1="313.69" y1="144.27" x2="325.4" y2="133.81"/>
            <path class="cls-20" d="M240.71,160.78c-2.76.83-7.94,2.06-10.7,2.89-1.63.49-4.43,1.52-4.37,2.3.14,2,4.51-.54,4.58.47.04.62-3.5,1.55-5.32,2.04-1.62.44-3.75,1.26-3.72,2.34.03,1.4,9.1-1.13,9.1-1.13,0,0-9.42,3.06-9.34,4.24.12,1.69,9.61-1.37,9.61-1.37,0,0-7.99,2.76-7.9,4.01.09,1.25,5.9-.92,8.41-1.4-1.7.77-6.3,2.29-6.24,3.2.07.91,3.65.32,4.49,0,8.31-3.11,14.51-6.2,14.51-6.2"/>
            <path class="cls-1" d="M240.45,165.21s-3.65,2.59-7.05,1.39"/>
          </g>
          <g>
            <g>
              <path class="cls-20" d="M344.96,90.54l1.02,9.87s1.94,3.89-5.46,4.1c-5.72.17-7.88-4.4-7.88-4.4l2.7-15.27"/>
              <path class="cls-20" d="M353.01,68.67c2.01,6.34,4.46,19.4-2.77,23.23-1.66.88-4.2.65-6.79-.5-5.61-2.48-9.21-7-10.2-10.95-1.25-4.97,11.68-22.66,19.76-11.78Z"/>
              <path class="cls-21" d="M324.37,70.94c-.95.7-2.16,1.15-2.96,2.04-1.65,1.85-1.98,4.81-.82,7,.42.79,1.04,1.57,1,2.46-.05,1.16-1.07,2.03-2,2.73-4.14,3.09-2.39,9.3-2.39,9.3,0,0,11.81.54,18.83.04.07-3.96-.9-8.4.23-12.2,1.14-3.8,3.29-7.41,6.57-9.63,1.58-1.07,3.56-2.03,3.96-3.89,3.01,1.32,5.8,3.16,8.21,5.4,1.32-2.45,1.38-5.59-.02-7.99-.76-1.31-2.99-3.36-5.11-3.7-4.3-4.3-13.53-3.96-18.89-.39-4.08,2.72-4,6.93-6.61,8.84Z"/>
              <path class="cls-1" d="M349.07,78.5s2.61,4.14,2.1,5.05c-.51.9-2.67.44-2.67.44"/>
              <path class="cls-29" d="M343.46,78.52c-.04.06-.07.12-.1.18-.21.44-.15.86-.14,1.33,0,.76,1.27.69,1.19-.08-.05-.48-.13-.99-.33-1.43-.2-.44-.45-.26-.62,0Z"/>
              <path class="cls-29" d="M352.09,77.51c-.02.06-.04.13-.06.19-.12.47.02.88.12,1.35.15.75,1.37.44,1.14-.31-.14-.46-.32-.95-.6-1.35-.28-.4-.48-.17-.6.12Z"/>
              <path class="cls-29" d="M339.58,77.97s-.04-.36.14-.89c.18-.51.63-1.12,1.25-1.52.62-.39,1.41-.55,1.98-.42.29.05.51.19.64.27.14.11.2.17.2.17,0,0-.1.01-.24.02-.15,0-.35.07-.56.13-.43.14-.95.39-1.44.7-.49.31-.96.68-1.33.99-.17.16-.35.28-.45.4-.11.11-.19.16-.19.16Z"/>
              <path class="cls-29" d="M350.19,75.39s.02-.07.07-.18c.05-.09.17-.27.34-.39.35-.27.97-.38,1.52-.23.56.15,1.03.52,1.26.89.23.37.24.67.24.67,0,0-.08-.02-.18-.07-.1-.05-.26-.09-.43-.15-.33-.12-.73-.24-1.11-.34-.38-.1-.76-.18-1.09-.21-.31-.05-.62.02-.62,0Z"/>
              <path class="cls-1" d="M338.25,88.26s1.79,2.81,6.9,4.18"/>
              <path class="cls-20" d="M337.86,81.42c-.59-2.45-3.08-2.07-3.75-1.58-.48.35-.66.98-.72,1.58-.13,1.51.43,3.08,1.5,4.2.38.4.83.75,1.36.91,1.47.44,2.41-.66,2.4-1.92"/>
            </g>
            <path class="cls-18" d="M351.42,85.82h-7.1s.7,3.72,4.13,3.72c3.05,0,2.97-3.72,2.97-3.72Z"/>
            <polygon class="cls-18" points="333.05 97.75 342.5 104.35 339.04 110.71 330.89 100.77 333.05 97.75"/>
            <polygon class="cls-18" points="345.78 98.03 342.5 104.35 345.46 110.08 348.37 100.1 345.78 98.03"/>
          </g>
          <polygon class="cls-32" points="331.24 353.71 300.84 353.71 300.84 346 332.34 346 331.24 353.71"/>
          <polygon class="cls-32" points="380.04 353.71 344.17 353.71 344.17 346 380.36 346 380.04 353.71"/>
          <path class="cls-24" d="M354.58,101.66c1.32,2.45,7.43,6.34,8.34,6.11.91-.23-1.15-2.81-1.33-3.41,2.04.55,3.76,1.34,5,2.11,1.55.96,3.27,2.03,4.77,3.07-.74-1.86-2.87-4.7-3.77-5.39-3.5-2.69-8.66-3.92-13.01-2.49"/>
        </g>
        <g>
          <path class="cls-30" d="M241.42,96.76s15.71-4.14,29.38,7.11c11.36,9.34,19.38,21.03,19.38,21.03l-20.69,17.57-21.89-18.21"/>
          <g>
            <path class="cls-28" d="M230.45,384.19v-2.1h-38.86c-1.33,0-2.56-.7-3.24-1.84l-.23-.04v3.38c0,.13.05.25.13.34l.08.09c.55.59,1.32.92,2.12.92h39.26c.41,0,.74-.33.74-.74Z"/>
            <path class="cls-24" d="M231.29,341.6l-2.95,28.47.22,11.28h-37.81c-.88,0-1.58-.71-1.58-1.58h0c0-.66.4-1.24,1.02-1.48l17.35-8.13-1.31-31.38"/>
            <path class="cls-22" d="M207.26,368.59l-18.01,9.66c-.68.3-1.12,1.03-1.12,1.85h0c0,1.1,1.13,1.99,2.1,1.99h40.23l-1.87-12.28s-13.95,2.93-21.33-1.22Z"/>
            <line class="cls-12" x1="196.89" y1="374.15" x2="199.16" y2="377.59"/>
            <line class="cls-12" x1="199.16" y1="372.94" x2="201.43" y2="376.62"/>
            <line class="cls-12" x1="201.43" y1="371.63" x2="203.69" y2="375.32"/>
          </g>
          <g>
            <path class="cls-28" d="M260.75,384.19v-2.1h38.86c1.33,0,2.56-.7,3.24-1.84l.23-.04v3.38c0,.13-.05.25-.13.34l-.08.09c-.55.59-1.32.92-2.12.92h-39.26c-.41,0-.74-.33-.74-.74Z"/>
            <path class="cls-24" d="M256.84,341.6l3.97,28.47,1.83,11.28h37.81c.88,0,1.58-.71,1.58-1.58h0c0-.66-.4-1.24-1.02-1.48l-19.4-8.13.29-31.38"/>
            <path class="cls-22" d="M281.9,368.59l20.06,9.66c.68.3,1.12,1.03,1.12,1.85h0c0,1.1-1.13,1.99-2.1,1.99h-40.23l-.18-12.28s13.95,2.93,21.33-1.22Z"/>
            <line class="cls-12" x1="292.96" y1="373.91" x2="290.45" y2="377.59"/>
            <line class="cls-12" x1="290.6" y1="372.78" x2="288.18" y2="376.62"/>
            <line class="cls-12" x1="288.18" y1="371.63" x2="285.91" y2="375.32"/>
          </g>
          <g>
            <g>
              <path class="cls-22" d="M231.69,179.77s-.12,22.1,2.74,42.08c2.85,19.98,15.95,144.36,15.95,144.36h35.72s-2.94-94.66-6.95-142.89c-.87-10.42-3.32-31.4-12.34-44.17"/>
              <path class="cls-9" d="M280.98,366.2s-2.94-94.66-6.95-142.89c-.87-10.42-3.32-31.4-12.34-44.17"/>
              <path class="cls-22" d="M201.57,185.02c-3.62,46.12,2.19,181.18,2.19,181.18h33.28l8.5-138.93s7.52-30.85.23-45.94"/>
            </g>
            <path class="cls-9" d="M241.96,285.87s-6.11-70.67-8.7-98.99"/>
            <line class="cls-9" x1="232" y1="366.2" x2="239.78" y2="260.77"/>
            <path class="cls-9" d="M255.3,197.79s-.35,8.34,16.72,11.04"/>
            <path class="cls-9" d="M200.57,208.84s15.65-.25,17.43-11.04"/>
            <line class="cls-9" x1="203.55" y1="360.77" x2="237.25" y2="360.77"/>
            <line class="cls-9" x1="249.66" y1="360.77" x2="285.71" y2="360.77"/>
          </g>
          <path class="cls-24" d="M190.36,118.22s-11.23,11.14-15.55,10.68c-7.18-.77-47.52-30.36-47.52-30.36l-7.6,7.35s33.3,45,51.29,47.05c15.55,1.77,36.5-16.86,36.5-16.86"/>
          <path class="cls-30" d="M231.27,96.76s-14.84-2.99-29.38,7.11c-12.7,8.82-19.99,17.68-19.99,17.68l19.67,22.28,23.52-19.56"/>
          <g>
            <path class="cls-20" d="M182.71,119.81s15.78,17.01,23.32,19.38c6.1,1.92,30.72-5.75,30.72-5.75l6.98,10.74c-5.91,3.26-35.16,20.32-51.23,11.07-13.42-7.72-25.63-18.9-25.63-18.9"/>
            <path class="cls-20" d="M230.62,136.02c2.9-1.49,6.99-3.35,9.86-4.89,1.4-.75,4.25-2.33,4.86-1.92,1.17.79-3.04,2.92-2.31,3.55.44.39,3.43-1.46,4.86-2.48,1.27-.91,2.86-2.04,3.72-1.47.74.5-6.65,5.96-6.65,5.96,0,0,8.3-5.08,9.14-4.34,1.21,1.06-7.81,6.53-7.81,6.53,0,0,7.92-4.57,8.81-3.78.89.78-5.32,4.38-7.65,6.01,1.57-.77,7.1-3.98,7.75-3.41.65.57-1.91,2.75-2.6,3.22-4.2,2.8-13.13,7.48-13.13,7.48"/>
            <path class="cls-1" d="M245.46,139.74s-5.36-2.24-9.25.19"/>
          </g>
          <path class="cls-30" d="M231.08,97.22s-20.64,1.62-27.46,38.08c-2.89,15.43-3.75,62.54-3.75,62.54,0,0,39.25,2.56,76.72-.06,0-15.8-4.4-55.37-8.84-74.93-3.01-13.27-15.5-20.01-25.73-26.15"/>
          <g>
            <path class="cls-29" d="M227.37,66.73c-1.82,2.6-2.84,5.75-2.91,8.92-.05,2.39.61,5.06,2.65,6.31.79.48,1.85.68,2.61.16.61-.42.86-1.18,1.05-1.9.53-1.98.85-4.01.96-6.05.07-1.27.06-2.56-.27-3.79s-1.01-2.39-2.07-3.11"/>
            <path class="cls-24" d="M229.79,88.33l-.18,8.9s.74,3.21,6.79,3.37c7.69.21,9.21-3.89,9.21-3.89l-1.45-16.51"/>
            <path class="cls-33" d="M228.89,78.58c-.09-.46-.7-.63-1.16-.5-.65.18-1.13.76-1.35,1.4s-.2,1.33-.13,2c.07.62.2,1.26.56,1.77.64.91,2.03,1.18,2.97.58"/>
            <path class="cls-24" d="M228.23,69.73s-1.79,15.24.76,17.96c3.81,4.07,10.3,2.98,13.19.45,2.42-2.12,4.4-11.42,4.06-13.86-.93-6.6-15.01-8.52-18-4.55Z"/>
            <path class="cls-29" d="M248.54,67.11c-.82-1.46-.89-3.37-1.81-4.78-.78-1.2-2.1-1.9-3.45-2.13-1.41-.24-2.9-.04-4.21-.62-.84-.37-1.53-1.03-2.34-1.46-2.2-1.17-5.15-.33-6.51,1.85-.23.36-.41.76-.71,1.05-.67.67-1.68.68-2.57.89-1.09.25-2.66.94-3.13,2.12-.46,1.17-.47,2.83.06,3.96.91,1.98,2.57,2.03,4.3,2.5,3.04.82,5.88-.35,8.94-.47,1.3-.05,3.4.08,4.27,1.15,1.32,1.64,1.76,3.78,2.01,5.84.27,2.29-.8,6.34.85,8.16,1.01-.74,4.38-1.81,4.79-3.13.38-1.21-.03-2.58.34-3.79.32-1.07,1.18-1.83,1.74-2.78,1.1-1.88.87-4.54-.55-6.17-.53-.61-1.2-1.07-1.68-1.72-.12-.15-.22-.31-.31-.48Z"/>
            <path class="cls-8" d="M229.79,88.69c3.97,2.4,8.21,1.73,10.09,1,3.52-1.37,3.87-4.79,3.87-4.79"/>
            <path class="cls-8" d="M234.03,76.33s-.5,4.01-.14,4.77c.36.76,2.54.18,2.54.18"/>
            <path class="cls-29" d="M237.83,77.42c-.03.39.18.72.47.74.29.02.55-.27.58-.66.03-.39-.18-.72-.47-.74-.29-.02-.55.27-.58.66Z"/>
            <path class="cls-29" d="M229.62,76.71c-.03.39.18.72.47.74.29.02.55-.27.58-.66.03-.39-.18-.72-.47-.74-.29-.02-.55.27-.58.66Z"/>
            <path class="cls-29" d="M240.94,74.24c-.1-.18-.21-.35-.32-.53-.04-.06-.09-.13-.15-.17-.08-.05-.18-.05-.27-.05-.73,0-1.47.09-2.18.26-.32.08-.71.14-1.01.3-.4.2-.33.2-.12.6.02.04.04.08.08.11.06.04.15.02.22,0,1.17-.34,2.41-.45,3.62-.3.06,0,.14,0,.17-.05.03-.05,0-.1-.03-.16Z"/>
            <path class="cls-29" d="M228.99,73.94c.09-.17.19-.34.29-.51.04-.06.08-.13.13-.16.07-.04.14-.04.22-.04.59.04,1.17.16,1.74.37.26.09.56.18.79.34.31.22.26.21.06.6-.02.04-.04.08-.07.1-.05.04-.12.01-.18-.01-.92-.4-1.91-.56-2.89-.48-.05,0-.11,0-.13-.06-.02-.05,0-.1.04-.16Z"/>
            <path class="cls-18" d="M232.38,83.67h6.94s.1,3.61-4.22,3.61c-2.85,0-2.72-3.61-2.72-3.61Z"/>
            <path class="cls-24" d="M242.8,79.98c.24-.59,1.22-1.44,1.81-1.46.6-.02,1.18.26,1.66.66,2.24,1.9.72,6.34-2.3,6.3-1.11-.02-1.02-1.49-1.02-1.49"/>
          </g>
          <path class="cls-14" d="M202.52,143.05s2.19-22.96,5.6-29.41"/>
          <path class="cls-14" d="M271.34,141.35s-2.71-21.25-6.12-27.71"/>
        </g>
        <g>
          <g>
            <path class="cls-20" d="M104.63,105.41s-17.91,11.95-29.25,7.8c-8.34-3.05-25.31-28.57-25.31-28.57l-13.19,5.61c3.45,6.71,20.05,44.93,40.75,46.38,17.28,1.21,37.34-8.9,37.34-8.9"/>
            <path class="cls-20" d="M54.15,90.87c-1.76-3.2-4.4-7.47-6.1-10.7-.83-1.57-2.49-4.82-3.32-4.82-1.58,0,1,4.61-.07,4.74-.65.08-2.27-3.5-2.96-5.34-.62-1.64-1.38-3.68-2.54-3.68-1,0,2.45,9.69,2.45,9.69,0,0-4.53-9.9-5.77-9.74-1.78.23,3.18,10.94,3.18,10.94,0,0-4.5-9.19-5.82-9.02-1.32.17,2.21,7.39,3.35,10.36-.98-1.7-4.1-8.13-5.07-8-.96.12.05,3.75.41,4.61,2.16,5.22,7.52,15.14,7.52,15.14"/>
            <path class="cls-1" d="M38.04,85.05s6.37,1.26,8.48,5.95"/>
          </g>
          <g>
            <g>
              <polygon class="cls-28" points="183.29 384.93 154.1 384.93 154.29 381.36 183.48 381.36 183.29 384.93"/>
              <polyline class="cls-20" points="180.26 345.75 180.96 370.26 179.58 381.36 160.52 369.25 158.26 342.92"/>
              <path class="cls-26" d="M160.52,369.25s-3.92,7.04-5.2,9c-1.28,1.96-1.07,3.84-1.07,3.84h29.18c.51-2.97-2.41-12.84-2.41-12.84,0,0-15.03,1.04-20.5,0Z"/>
              <line class="cls-12" x1="166.69" y1="371.63" x2="173.64" y2="371.63"/>
              <line class="cls-12" x1="166.4" y1="373.99" x2="173.83" y2="373.99"/>
              <line class="cls-12" x1="166.13" y1="376.35" x2="174.09" y2="376.35"/>
            </g>
            <g>
              <path class="cls-28" d="M139.37,384.19l.11-2.1h-38.86c-1.33,0-2.52-.7-3.14-1.84l-.23-.04-.18,3.38c0,.13.03.25.12.34l.08.09c.52.59,1.27.92,2.07.92h39.26c.41,0,.76-.33.78-.74Z"/>
              <path class="cls-20" d="M138.08,345.75l-.08,24.33-.37,11.28h-37.81c-.88,0-1.55-.71-1.5-1.58h0c.03-.66.47-1.24,1.09-1.48l17.78-8.13-4.03-27.24"/>
              <path class="cls-26" d="M117,368.59l-18.52,9.66c-.69.3-1.18,1.03-1.22,1.85h0c-.06,1.1,1.03,1.99,1.99,1.99h40.23l-1.22-12.28s-14.1,2.93-21.26-1.22Z"/>
              <line class="cls-12" x1="106.64" y1="373.99" x2="109.04" y2="378.52"/>
              <line class="cls-12" x1="109.68" y1="372.41" x2="112.07" y2="376.94"/>
              <line class="cls-12" x1="112.71" y1="370.84" x2="115.11" y2="375.36"/>
            </g>
            <path class="cls-16" d="M122.14,162.28l-6.39,3.15-3.29,10.16c-5.28,8.12-13.23,24.26-12.42,46.99,1.2,33.79,12.2,133.52,12.2,133.52h27.51l1.29-152.4-.15-52.84"/>
            <path class="cls-16" d="M162.05,164.12s1.35,3.7,3.33,9.51c5.53,6.56,13.08,17.84,16.03,33,5.86,30.17,2.47,149.49,2.47,149.49h-26.7l-22.06-153.01s-3.8-12.93-2.68-34.48"/>
            <g>
              <path class="cls-10" d="M140.58,240.89c-1.55-16.16-7.23-42.08-7.52-62.01"/>
              <path class="cls-10" d="M112.46,175.6s15.91,8.55,52.92-1.97"/>
              <path class="cls-10" d="M128.9,178.81l-1.01-.06c-1.18-.07-2.02-1.09-1.88-2.27l.39-3.34c.13-1.12,1.11-2,2.24-2h2.09"/>
              <path class="cls-25" d="M131.19,175.16c-.04.85-.66,1.54-1.38,1.54s-1.26-.69-1.22-1.54c.04-.85.66-1.54,1.38-1.54s1.26.69,1.22,1.54Z"/>
              <path class="cls-10" d="M149.89,177.21c.01-.26-1.67-7.74-1.67-7.74"/>
              <path class="cls-10" d="M117.08,177.21c-.19-.2,2.6-8.05,2.6-8.05"/>
              <path class="cls-10" d="M160.34,174.98s9.31,10.71,12.95,29.74c3.64,19.03,5.67,151.39,5.67,151.39"/>
              <path class="cls-10" d="M146.68,177.72s.71,7.73,18.27,4.1"/>
              <path class="cls-10" d="M109.68,180.26s8.07,3.75,10.66-1.45"/>
              <path class="cls-10" d="M127.89,178.75s-.11,18.2,1.39,19.78,5.75,2.3,5.75,2.3"/>
              <path class="cls-10" d="M137.59,354.92s-1.9-114.18.06-135.12"/>
            </g>
          </g>
          <g>
            <path class="cls-26" d="M168.41,116.79c-3.59-5.35-23.34-17.32-23.34-17.32-6.21-.78-13.3-.6-13.3-.6,0,0-8.02,8.64-14.79,18.33-5.64,5.64-6.28,12.71-6.17,18.54.16,8.31,3.04,20.29,3.72,33.42,11.32,4.11,32.59,3.17,48.71-1.45,0,0,8.77-45.57,5.17-50.91Z"/>
            <path class="cls-26" d="M131.77,98.86s-10.93-2.35-27.21,5.56c-12.26,5.97-14.29,7.36-14.29,7.36l9.48,23.26,26.54-11.61"/>
            <path class="cls-24" d="M127.28,98.54c-1.82,2.1-8.63,4.57-9.47,4.15-.84-.42,1.73-2.49,2.04-3.04-2.11.09-3.96.49-5.34.97-1.72.6-3.59,1.07-5.28,1.74,1.12-1.65,3.78-3.76,4.81-4.24,4-1.86,9.31-1.94,13.24.41"/>
            <path class="cls-26" d="M156.36,128.74l17.05,14.98,16.35-17.17s-8.17-8.29-15.75-15.87c-14.9-14.9-28.94-11.22-28.94-11.22"/>
            <line class="cls-3" x1="167.91" y1="138.89" x2="157.67" y2="129.89"/>
            <path class="cls-3" d="M111.19,129.67s.93-7.61,5.79-12.48"/>
            <line class="cls-3" x1="94.19" y1="109.62" x2="103.42" y2="133.44"/>
            <line class="cls-3" x1="170.7" y1="141.35" x2="186.68" y2="123.43"/>
            <path class="cls-3" d="M130.19,98.85s-2.61,6.47,5.97,7c10.04.62,11.04-6.46,11.04-6.46"/>
          </g>
          <g>
            <path class="cls-20" d="M132.38,89.87l-.67,9.9s-.75,4.11,5.62,4.11c5.74,0,7.74-4.41,7.74-4.41l-1.62-14.43"/>
            <path class="cls-20" d="M128.82,67.1c-2.74,6.01-6.72,18.63-.02,23.56,1.54,1.13,4.08,1.29,6.78.55,5.85-1.6,9.95-5.55,11.41-9.34,1.83-4.75-8.87-24.36-18.17-14.76Z"/>
            <path class="cls-18" d="M129.17,85.49l6.73-.45s-1.03,3.37-3.96,3.37-2.77-2.92-2.77-2.92Z"/>
            <path class="cls-28" d="M153.61,69.55c.86,1.03,1.94,1.82,3.5,2.29,2.48.76,4.04,1.3,5.45,3.68,1.4,2.38,1.11,6.48,3.71,7.68,2.47,1.14,5.51-.15,7.15,2.71-.86,3.37-6.65,12.35-8.87,15.42-1.92-1.92-2.77-2.31-4.84-2.75-1.63-.35-3.37-.11-4.96-.63-1.45-.47-2.65-1.54-3.47-2.83-.53-.83-.93-1.77-1.61-2.49-.97-1.03-2.38-1.49-3.74-1.85-.86-.23-1.75-.44-2.48-.95-1.67-1.15-2.1-3.11-2.2-4.96-.13-2.38-.12-4.75-.11-7.14,0-2.57-2.43-3.79-3.93-5.46-.2-.22-2.95-4.03-2.44-4.22-2.4.9-6.83,2.51-8.71,4.26-2.13-4.9,1.76-10.69,7.39-10.35.81.05,2.39-.98,3.3-1.16,1.16-.23,2.35-.29,3.54-.22,2.4.15,4.78.85,6.9,1.99,1.66.9,3.78,2.24,4.63,4,.54,1.12,1.1,2.12,1.8,2.96Z"/>
            <path class="cls-1" d="M131.55,77.49s-3.08,3.72-2.68,4.7c.4.98,2.59.85,2.59.85"/>
            <path class="cls-29" d="M136.07,78.21c.03.06.05.13.08.19.15.47.04.88-.02,1.35-.1.75-1.34.49-1.16-.27.11-.47.25-.96.5-1.38.25-.41.47-.19.61.1Z"/>
            <path class="cls-29" d="M128.67,76.05c.02.07.03.14.04.2.06.49-.13.87-.28,1.32-.24.72-1.41.23-1.09-.49.2-.44.43-.9.75-1.25.32-.35.5-.1.58.22Z"/>
            <path class="cls-29" d="M139.03,78.11s.08-.35-.04-.91c-.11-.54-.49-1.22-1.05-1.71-.57-.49-1.33-.76-1.91-.72-.29,0-.52.11-.67.17-.15.08-.21.14-.21.14,0,0,.1.03.24.06.15.03.34.12.54.21.41.2.9.53,1.35.92.45.38.87.82,1.2,1.19.15.18.31.33.4.46.1.12.17.19.17.19Z"/>
            <path class="cls-29" d="M130.81,74.22s-.01-.07-.05-.19c-.04-.09-.14-.3-.3-.44-.31-.32-.91-.52-1.48-.46-.57.06-1.09.36-1.35.69-.27.33-.31.63-.31.63,0,0,.08-.01.19-.04.1-.04.27-.05.44-.09.34-.06.75-.13,1.14-.17.39-.04.78-.07,1.11-.04.32,0,.62.11.62.1Z"/>
            <path class="cls-1" d="M140.4,89.39s-3.29,2.58-8.16,2.58"/>
            <path class="cls-20" d="M140.25,81.17c.88-2.35,3.3-1.59,3.9-1,.43.43.54,1.08.52,1.69-.05,1.52-.79,3-1.98,3.95-.42.34-.92.62-1.45.69-1.51.22-2.31-1.02-2.15-2.29"/>
          </g>
        </g>
      </g>
    </g>
  </g>
</svg>